<svg id="Layer_1" data-name="Layer 1" xmlns="http://www.w3.org/2000/svg" viewBox="0 0 287.12 259.6"><defs><style>.cls-1{fill:#fff;}.cls-2{fill:#313237;}</style></defs><title>logowit</title><path class="cls-1" d="M919.7,476a41.43,41.43,0,0,0-17.61-5.38,41,41,0,0,0-16.26-54,41.09,41.09,0,0,0-55.08,13.41,40.72,40.72,0,0,0-13.91-13.23A41.1,41.1,0,0,0,762.59,429a41.09,41.09,0,0,0-70.71,41.56,41.12,41.12,0,0,0-.42,82.08,41.07,41.07,0,0,0,35.23,58.4,41.1,41.1,0,0,0,70.93,41.21,41.08,41.08,0,0,0,71-41,41.13,41.13,0,0,0,36.61-51.7,41.85,41.85,0,0,0-2.58-6.92A41.12,41.12,0,0,0,919.7,476ZM869.13,464.8a13.57,13.57,0,0,1-3.27.44A13.24,13.24,0,0,1,853,454.82a14,14,0,0,1-.33-2.91A13.25,13.25,0,0,1,863.38,439a13.09,13.09,0,0,1,11,2.81,14,14,0,0,1,2,2.11,13.11,13.11,0,0,1-7.24,20.87Z" transform="translate(-653.18 -410.94)"/><path class="cls-2" d="M801.6,525a12.84,12.84,0,0,0,8.69-2.88c2.28-1.94,3.35-4.08,4.09-8.1H811c-1.2,5-4.28,7.63-9.1,7.63a7.66,7.66,0,0,1-5.69-2.14c-2-2.07-2.81-4.68-2.94-10h21.15c0-3.95-.2-5.55-1.07-8-2.07-5.49-6.36-8.64-11.71-8.64-8.3,0-15,7.23-15,16.2S793,525,801.6,525m-6.83-24.36a6.79,6.79,0,0,1,6.42-4.22,6.16,6.16,0,0,1,4.36,1.74c1.74,1.81,2.47,3.89,2.6,7.9H793.5a13.8,13.8,0,0,1,1.27-5.42" transform="translate(-653.18 -410.94)"/><path class="cls-2" d="M820.87,500.35v16.34c0,2.4-1.54,3.81-4.21,3.81h-2.34v3.68h18V520.5h-1.48c-2.87,0-4.48-1.34-4.48-3.75v-8.64c0-6.35,4.15-11.64,9.1-11.64,3.28,0,5.89,3.08,5.89,7.16v12.85c0,2.88-1.27,4-4.55,4h-1.67v3.68h17.4V520.5h-1.67c-2.75,0-4-1.27-4-4V504c0-6.43-4.42-11.05-10.64-11.05a10,10,0,0,0-6.56,2.41,14.52,14.52,0,0,0-3.15,3.88h-.13v-5.42h-12v3.62h2.54c3,0,4,.73,4,2.94" transform="translate(-653.18 -410.94)"/><path class="cls-2" d="M794.1,555.1c-1.21,5-4.29,7.63-9.1,7.63a7.65,7.65,0,0,1-5.69-2.14c-2-2.07-2.81-4.69-2.95-10h21.15c0-3.93-.2-5.55-1.07-8-2.08-5.49-6.36-8.63-11.71-8.63-7.43,0-13.55,5.79-14.76,13.44C769,540,763.59,534,757.28,534c-3.88,0-6.35,1.41-9.3,5.42h-.13V524.18h7.7V520.5h-2.88c-2.68,0-4.15-1.61-4.15-4.35v-4.09A34.23,34.23,0,0,1,751,501.22c1.2-3.21,3-5.15,4.81-5.15.74,0,1.47.53,1.47,1.07,0,.27-.26.67-.8,1.2a3.34,3.34,0,0,0-1.4,2.55,3.14,3.14,0,0,0,3.35,3.14,3.88,3.88,0,0,0,1.23-.22,17.41,17.41,0,0,0-.83,5.31c0,9,6.42,15.86,15,15.86a12.89,12.89,0,0,0,8.7-2.88c2.28-1.94,3.35-4.08,4.08-8.1h-3.41c-1.21,5-4.28,7.63-9.11,7.63a7.64,7.64,0,0,1-5.68-2.14c-2-2.07-2.81-4.68-2.95-10H786.6c0-3.95-.2-5.55-1.07-8-2.07-5.49-6.36-8.64-11.71-8.64a14.51,14.51,0,0,0-11.27,5.52,6.13,6.13,0,0,0-6.07-5.52,6.52,6.52,0,0,0-5.42,2.55c-1.4,1.87-1.87,3-2.81,6.89h-.13v-8.57H737a7.69,7.69,0,0,0-3.6-.8c-2.48,0-4.28.8-7.09,3.08a12.76,12.76,0,0,0-9-3.15c-7.49,0-12.78,4.42-12.78,10.64,0,3,1.47,5.63,4.48,8-3.74,1.2-5.62,3.28-5.62,6.29s2,5,6.43,6.15c-5.29,2.68-7.3,4.82-7.3,7.9,0,4.89,5.62,8,14.39,8,6.22,0,10.84-1.54,13.79-4.61a11,11,0,0,0,3.28-7.57c0-5.42-3.82-8.77-9.85-8.77H713.91c-4.48,0-6.35-.87-6.35-2.94,0-1.74,1.87-2.74,5-2.74.33,0,.73.06,1.74.13s1.94.13,2.48.13c7.49,0,12.71-4.21,12.71-10.23,0-2.08-.33-3-1.8-5.7,2.27-1.74,3.47-2.27,4.88-2.27a.78.78,0,0,1,.87.74,1.4,1.4,0,0,1-.27.73,4.7,4.7,0,0,0-.67,2.28,3.53,3.53,0,0,0,3.55,3.34,3.92,3.92,0,0,0,3.62-4,5.94,5.94,0,0,0-.1-1.05c2.17.12,3.45,1.29,3.45,3.26v16.86a2.94,2.94,0,0,1-2.8,2.88h-3.43v.07h-.27v3.68h2.07c2.28,0,3.82,1.14,3.82,2.94v38.16h2.74l2.08-6.36a18,18,0,0,0,4.21,4.89,9.61,9.61,0,0,0,6.36,2.27c6.13,0,11.15-5.67,12.18-13.33,1.08,7.74,7.06,13.33,14.8,13.33a12.89,12.89,0,0,0,8.7-2.88c2.27-2,3.35-4.08,4.08-8.1Zm-16.2-13.39a6.8,6.8,0,0,1,6.43-4.21,6.12,6.12,0,0,1,4.35,1.74c1.74,1.8,2.48,3.88,2.61,7.9H776.63a14.22,14.22,0,0,1,1.27-5.43M767,500.62a6.79,6.79,0,0,1,6.43-4.22,6.13,6.13,0,0,1,4.35,1.74c1.74,1.81,2.48,3.89,2.61,7.9H765.72a14.16,14.16,0,0,1,1.27-5.42m-44.37,23.49c4.41,0,6.76,1.81,6.76,5.22,0,4.42-4.62,7.37-11.79,7.37-6,0-9.76-2.35-9.76-6.1,0-2.47,1-3.61,5.48-6.49Zm-5.56-13.59c-3.88,0-6.69-3.07-6.69-7.15,0-4.29,2.74-7.37,6.62-7.37s6.63,2.88,6.63,7.37c0,4.14-2.74,7.15-6.56,7.15m40,51.67c-5.15,0-9.37-5.35-9.37-11.7,0-7.43,3.35-12.45,8.44-12.45,4.75,0,7.36,4.21,7.36,11.91,0,7.49-2.55,12.24-6.43,12.24" transform="translate(-653.18 -410.94)"/><path class="cls-2" d="M877.83,538.5h.67v-3.61H865v3.61h3c1.68,0,2.48.54,2.48,1.54a4,4,0,0,1-.34,1.34l-7.29,18-7-16.2a11.9,11.9,0,0,1-.94-3.08V540c0-1,.94-1.48,3.22-1.48h3v-3.61H844.5V535a6,6,0,0,0-3.21-.94,6.55,6.55,0,0,0-5.43,2.54c-1.4,1.88-1.87,3-2.81,6.89h-.13v-8.56H821.34v2.27a6,6,0,0,0-5.29-3.14,6.53,6.53,0,0,0-5.42,2.54c-1.4,1.88-1.88,3-2.81,6.89h-.13v-8.56H796.11v3.61h2.61c2.41,0,3.81,1.21,3.81,3.28v16.87c0,1.74-1.4,2.94-3.61,2.94H796v3.69h19.08v-3.69h-2.88c-2.68,0-4.15-1.6-4.15-4.34v-4.09a34.45,34.45,0,0,1,2.47-10.85c1.21-3.2,3-5.15,4.82-5.15.74,0,1.48.54,1.48,1.07,0,.27-.27.68-.81,1.21a3.32,3.32,0,0,0-1.4,2.54,3.15,3.15,0,0,0,3.34,3.15,4.42,4.42,0,0,0,4.22-4.62,7.29,7.29,0,0,0-.31-2H824c2.41,0,3.82,1.21,3.82,3.28v16.87c0,1.74-1.41,2.94-3.62,2.94h-2.87v3.69h19.07v-3.69h-2.88c-2.68,0-4.15-1.6-4.15-4.34v-4.09a34.5,34.5,0,0,1,2.48-10.85c1.2-3.2,3-5.15,4.82-5.15.73,0,1.47.54,1.47,1.07,0,.27-.27.68-.8,1.21a3.31,3.31,0,0,0-1.41,2.54,3.16,3.16,0,0,0,3.35,3.15,4.42,4.42,0,0,0,4.21-4.62,6.91,6.91,0,0,0-.21-1.65,3.2,3.2,0,0,1,1.76,1.52l11.17,25.7a36.33,36.33,0,0,1-3.34,7.36c-2,3.08-4.22,4.69-6.56,4.69a3.18,3.18,0,0,1-2-.74.59.59,0,0,1-.27-.53c0-.07.2-.14.47-.21a3.47,3.47,0,0,0-.8-6.89c-2.21,0-3.95,2.14-3.95,4.81,0,3.49,3.21,6.43,7.16,6.43a8.51,8.51,0,0,0,6.16-2.81,28.91,28.91,0,0,0,5-8.3l11-27.44c1-2.47,2.81-4,4.75-4" transform="translate(-653.18 -410.94)"/><path class="cls-2" d="M876,558.92a3.52,3.52,0,1,0,3.54,3.54,3.53,3.53,0,0,0-3.54-3.54" transform="translate(-653.18 -410.94)"/></svg>