<?xml version="1.0" encoding="utf-8"?>
<!-- Generator: Adobe Illustrator 23.1.0, SVG Export Plug-In . SVG Version: 6.00 Build 0)  -->
<svg version="1.1" id="Layer_1" xmlns="http://www.w3.org/2000/svg" xmlns:xlink="http://www.w3.org/1999/xlink" x="0px" y="0px"
	 viewBox="0 0 448 136" style="enable-background:new 0 0 448 136;" xml:space="preserve">
<style type="text/css">
	.st0{clip-path:url(#SVGID_2_);}
	.st1{fill:url(#SVGID_3_);}
	.st2{fill:none;stroke:#92EAFF;stroke-width:1.5265;stroke-linecap:round;stroke-linejoin:round;}
	.st3{fill:#FFF922;}
	.st4{fill:#92EAFF;}
	.st5{fill:url(#SVGID_4_);}
	.st6{fill:none;stroke:#FF00AA;stroke-width:1.5265;stroke-linecap:square;stroke-linejoin:bevel;}
	.st7{fill:url(#SVGID_5_);}
	.st8{fill:#FF00AA;}
	.st9{fill:#FFFFFF;}
	.st10{fill:#1595FF;}
	.st11{fill-rule:evenodd;clip-rule:evenodd;fill:#1595FF;}
	.st12{opacity:0.66;}
	.st13{opacity:0.66;fill:#FF00AA;enable-background:new    ;}
	.st14{fill:#313237;}
</style>
<g>
	<defs>
		<rect id="SVGID_1_" width="448" height="136"/>
	</defs>
	<clipPath id="SVGID_2_">
		<use xlink:href="#SVGID_1_"  style="overflow:visible;"/>
	</clipPath>
	<g class="st0">
		
			<linearGradient id="SVGID_3_" gradientUnits="userSpaceOnUse" x1="133.0015" y1="133.3069" x2="148.6795" y2="59.0103" gradientTransform="matrix(1 0 0 -1 0 138)">
			<stop  offset="0" style="stop-color:#45A2FF"/>
			<stop  offset="0.15" style="stop-color:#469EFF"/>
			<stop  offset="0.29" style="stop-color:#4994FF"/>
			<stop  offset="0.42" style="stop-color:#4F81FF"/>
			<stop  offset="0.52" style="stop-color:#556EFF"/>
			<stop  offset="0.78" style="stop-color:#3E3ED6"/>
			<stop  offset="1" style="stop-color:#FF00AA"/>
		</linearGradient>
		<path class="st1" d="M160.2,20.8l-8,0.9l-0.7-6l-12.4,15.5l6-0.7l4.1,35.8l4.4,3.5l3.5-4.4l5.3-6.7l-2.2-1.8l-3.5,4.4l-3.6-31.8
			L160.2,20.8z M202,22l-1.8-15.9l-6.7-5.3l-5.3,6.7l4.4,3.5l5.2,45.8l8.9,7.1l5.3-6.7l-6.6-5.3L202,22z M202,22l6.7,5.3l3.4,29.9
			l7.1-8.9l-3-25.9l-8.9-7L202,22z M47.9,73.5l-4.7-3.7l-5.5-48.1l-7-5.6l-5.6,7l4.7,3.7L31,37.2l-9.2,11.6l-2.8-25l-7-5.6l0,0l0,0
			l-11.1,14l2.4,1.9l5.6-7l2.3,1.9l6,52.2l4.7,3.7l3.7-4.6l-2.6-22.5L32,46.2l3.3,28.7l9.3,7.4l9.3-11.6l-2.3-1.9L47.9,73.5z
			 M172.2,25.5l-7.1,8.9l3,25.9l8.9,7.1l5.3-6.7l-6.7-5.3L172.2,25.5z M172.2,25.5l6.7,5.3l3.4,29.9l7.1-8.9l-3-25.9l-8.9-7.1
			L172.2,25.5z M245.3,19.1l-8.8-7l-5.3,6.7l6.6,5.3l-5.3,6.6l-1.3-11.8l-7.1,8.9l3,25.9l8.9,7.1l3.5-4.4l1.8-2.2l5.3-6.7l-2.2-1.8
			l-5.3,6.7l-4.4-3.5l-1.6-14L245.3,19.1z M63.4,37.9l-7.1,8.9l2.9,25.9l8.9,7.1l5.3-6.7l-6.7-5.3L63.4,37.9z M77.5,38.3l-8.9-7.1
			l-5.3,6.7l6.7,5.3L73.4,73l6.7,5.3l5.3-6.7l-4.4-3.5L77.5,38.3z M102.4,67.7L98,64.1l-3.4-29.9l-7.1,8.9l3,25.9l8.9,7.1l3.5-4.4
			l1.8-2.2l5.3-6.7l-2.2-1.8L102.4,67.7z M94.6,34.3l6.7,5.3l5.3-6.7l-6.7-5.3L94.6,34.3z M126.4,24.6l-5.3,6.7l6.7,5.3l5.3-6.7
			L126.4,24.6z M126.9,46.7l2.5,21.9l4.4,3.5l3.5-4.4l-3-25.9l-6.7-5.3l-5.3,6.7L126.9,46.7z M119.3,15.4l-6.7-5.3l-5.3,6.7l4.4,3.5
			l5.7,49.8l4.4,3.5l3.5-4.4l-3-25.9l-1.4-11.9L119.3,15.4z M266.4,8.7l-5.3,6.7l6.7,5.3L273,14L266.4,8.7z M249.1,16.7l4.4,3.5
			l3.8,33.8l4.4,3.5l3.5-4.4L261,15.3l-6.7-5.3L249.1,16.7z"/>
		<path class="st2" d="M160.2,20.7l-8,0.9l-0.7-6l-12.3,15.5l6-0.7l4.1,35.8l4.4,3.5l3.5-4.4l5.3-6.7l-2.2-1.8l-3.5,4.4l-3.6-31.9
			L160.2,20.7z M202,22L200.2,6l-6.6-5.3l-5.3,6.7l4.4,3.5l5.2,45.8l8.9,7.1l5.3-6.7l-6.7-5.3L202,22z M202,22l6.7,5.3l3.4,29.9
			l7.1-8.9l-2.9-25.9l-8.9-7.1L202,22z M47.8,73.4l-4.7-3.7l-5.5-48.1l-7-5.6l-5.5,7l4.7,3.7L31,37.1l-9.2,11.6l-2.9-25l-7-5.6l0,0
			l0,0l-11.1,14l2.4,1.9l5.6-7l2.3,1.9l6,52.2l4.7,3.7l3.7-4.7l-2.6-22.5L32,46.1l3.3,28.7l9.3,7.4l9.3-11.6l-2.3-1.9L47.8,73.4z
			 M172.2,25.4l-7.1,8.9l3,25.9l8.9,7.1l5.3-6.7l-6.7-5.3L172.2,25.4z M172.2,25.4l6.7,5.3l3.4,29.9l7.1-8.9l-3-25.9l-8.9-7.1
			L172.2,25.4z M245.3,19l-8.8-7l-5.3,6.7l6.6,5.3l-5.3,6.6l-1.3-11.8l-7.1,8.9l3,25.9l8.9,7.1l3.5-4.4l1.8-2.2l5.3-6.7l-2.2-1.8
			l-5.3,6.7l-4.4-3.5l-1.6-14L245.3,19z M63.3,37.8l-7.1,8.9l3,25.9l8.9,7.1l5.3-6.7l-6.7-5.3L63.3,37.8z M77.5,38.2l-8.9-7.1
			l-5.3,6.7l6.7,5.3l3.4,29.9l6.7,5.3l5.3-6.7L80.9,68L77.5,38.2z M102.4,67.6L98,64.1l-3.4-29.9l-7.1,8.9l3,25.9l8.9,7.1l3.5-4.4
			l1.8-2.2l5.3-6.7l-2.2-1.8L102.4,67.6z M94.6,34.2l6.7,5.3l5.3-6.7l-6.7-5.3L94.6,34.2z M126.4,24.5l-5.3,6.7l6.7,5.3l5.3-6.7
			L126.4,24.5z M126.9,46.7l2.5,21.9l4.4,3.5l3.5-4.4l-3-25.9l-6.7-5.3l-5.3,6.6L126.9,46.7z M119.3,15.3l-6.7-5.3l-5.3,6.7l4.4,3.5
			l5.7,49.8l4.4,3.5l3.5-4.4l-3-25.9l-1.4-11.9L119.3,15.3z M266.3,8.6l-5.3,6.7l6.7,5.3l5.3-6.7L266.3,8.6z M249.1,16.6l4.5,3.5
			l3.8,33.8l4.4,3.5l3.5-4.4L261,15.3l-6.7-5.3L249.1,16.6z"/>
		<path class="st3" d="M203,88.4l-1.8-11.8l-3.9,0.6l-0.4-2.6l6.8-1.1L206,88l4-0.6l0.4,2.6l-11.2,1.7l-0.4-2.6L203,88.4z"/>
		<path class="st3" d="M222.9,76.4c0.3,2-0.4,3.8-1.3,5.5l-3.4,6.9l-3.4,0.5l3.3-6.7c-0.2,0.1-0.5,0.2-0.7,0.2c-3,0.5-6-1.3-6.5-4.8
			c-0.6-3.6,1.9-6.1,5-6.6C219.5,70.8,222.4,73,222.9,76.4z M216.5,74c-1.7,0.2-2.8,1.8-2.6,3.5s1.8,2.8,3.5,2.6
			c1.7-0.2,2.8-1.8,2.6-3.5c0,0,0,0,0,0c-0.2-1.6-1.7-2.8-3.3-2.6C216.6,74,216.5,74,216.5,74z"/>
		<path class="st3" d="M178,89.7l0.3,1.9l-11,1.7l-0.1-0.6c-0.6-3.5,0.2-6,3.5-8.7l1.2-1c1.6-1.3,2.7-2.6,2.4-4.4
			c-0.3-1.8-1.7-2.9-3.7-2.6c-2.1,0.3-3.2,1.9-3.1,4l-2,0.3c-0.2-3.4,1.9-5.7,4.8-6.1c2.8-0.4,5.5,1,6,4.1c0.4,2.4-0.7,4.2-3.2,6.2
			l-1.3,1.1c-2,1.6-2.9,3.6-2.7,5.6L178,89.7z"/>
		<path class="st3" d="M185.1,71.7c4.5-0.7,7.2,3.6,7.9,8.3c0.7,4.7-0.5,9.6-5,10.3c-4.5,0.7-7.2-3.6-7.9-8.3
			C179.4,77.3,180.6,72.5,185.1,71.7z M182,81.7c0.1,0.9,0.4,1.9,0.7,2.7l6.9-8.6c-1-1.7-2.4-2.6-4.2-2.3
			C182.5,74,181.4,77.3,182,81.7z M190.4,77.7l-6.8,8.5c1,1.6,2.4,2.5,4.1,2.2c2.9-0.5,4-3.8,3.4-8.2
			C190.9,79.4,190.7,78.6,190.4,77.7z"/>
		<path class="st4" d="M216.9,57.4l-6.8,1.1l0.3,2l6.8-1.1L216.9,57.4z"/>
		<path class="st4" d="M222.5,56.4l-3.2,0.5l0.3,2l3.2-0.5L222.5,56.4z"/>
		<path class="st4" d="M237.6,36.8l-4,0.7l0.3,2l4-0.7L237.6,36.8z"/>
		<path class="st4" d="M251.3,25.2l-5,0.8l0.3,2l5-0.8L251.3,25.2z"/>
		<path class="st4" d="M241.4,26.8l-3.6,0.6l0.3,2l3.6-0.6L241.4,26.8z"/>
		<path class="st4" d="M262.1,23.7l-1.9,0.3l0.3,2l1.9-0.3L262.1,23.7z"/>
		<path class="st4" d="M273.9,21.2l-1.9,0.3l0.3,2l1.9-0.3L273.9,21.2z"/>
		<path class="st4" d="M225.6,44.4l-3.1,0.5l0.3,2l3.1-0.5L225.6,44.4z"/>
		<path class="st4" d="M266.7,27.2l-4,0.6l0.3,2l4-0.6L266.7,27.2z"/>
		<path class="st4" d="M278,25.3l-8.7,1.4l0.3,2l8.7-1.4L278,25.3z"/>
		<path class="st4" d="M282.5,24.4l-2.2,0.4l0.3,2l2.2-0.4L282.5,24.4z"/>
		<path class="st4" d="M254.8,33.7l-4,0.6l0.3,2l4-0.6L254.8,33.7z"/>
		
			<linearGradient id="SVGID_4_" gradientUnits="userSpaceOnUse" x1="332.6993" y1="112.0908" x2="342.9763" y2="26.2106" gradientTransform="matrix(1 0 0 -1 0 138)">
			<stop  offset="0" style="stop-color:#FF00AA"/>
			<stop  offset="1" style="stop-color:#2445EA"/>
		</linearGradient>
		<path class="st5" d="M290.4,40.1c1.6-0.5,3.2-1.1,4.8-1.8c1.2-1.1,1.2-1,2.3-2.2c-0.3-0.6,0.3-1.2,0.6-1.4l0.9-0.2
			c-0.1-0.4-0.2-0.7-0.3-1.1l-1.1-0.1l-0.7,0.1c-0.1,0-0.2-0.1-0.4-0.1c-0.1,0.1-0.1,0.2-0.2,0.2l-1.3,0.2c-0.1-0.2-0.2-0.5-0.1-0.6
			c0.2-0.1,0.5-0.2,0.4-0.4h0.5l2.4-0.3c-0.2-0.5-0.5-0.9-0.8-1.3l-0.6,0l-2.9,0.3l-1.1-0.2l-0.8,0.1c-0.3-0.1-0.6-0.2-0.9-0.3
			c-0.2-0.1-2.1,0.8-3.1,0.1c-3.8,0.7-17,2.9-20.8,3.2c-4,0.4-8,1-11.9,1.8c-0.2,0.2-0.3,0.5-0.4,0.7c-1.9,5.3-4.2,10.4-6.7,15.4
			c-0.9,0-1.7-0.1-2.6-0.1c-1,0.3-2,0.5-3,0.6c-2,0.1-3.6,2.2-2.7,4c0.7,1.6,1.7,3.1,3,4.2c0.3,0.2,0.6,0.4,0.8,0.6
			c-0.5,1.1-0.7,2.2-0.8,3.4c-0.1,0.9,0.6,1.8,0.3,2.6c-0.3,1.1-1,2.4-1.9,3c-1.9,1.3-1.9,3.2-2.5,4.9c-0.6,1.7-0.2,3.6-2.4,5
			c-0.6,0.3-0.2,2.1-0.2,3.3c0,0.6,0.2,1.6,0,1.6l0.4,0.2c2.3-1,4.6-2,7-3c0.4-0.2,0.8-0.2,1.2,0c0.9-0.3,1.7-0.6,2.6-0.9
			c0.1,0,0.1,0,0.2,0c0.1-0.3,0.1-0.5,0.2-0.8c0.2-1.2,0.3-2.6,1-3.6c0.7-1.1,2.6-1.6,1.3-3.5c-0.3-0.4,0.8-1.9,1.5-2.8
			c2-2.6,3.1-5.6,4.2-8.5c0.2-0.3,0.5-0.5,0.9-0.5c7.5-1.6,15.1-2.5,22.6-3.2c0.6-1.5,1.9-2.7,3.4-3.3c0.3-0.2,0.8-0.2,1.1-0.3
			c0-0.1,0.1-0.1,0.1-0.2c-0.3-0.2-0.6-0.4-0.8-0.6c-0.5-0.2-0.9-0.5-0.6-0.8c-0.5-0.9-0.7-1.8-0.6-2.8c-0.4-0.1-0.7-0.2-1.1-0.2
			c-0.7-0.1-1.5-0.5-2.1-0.3c-3.7,1.2-7.6,0.9-11.4,0.7c-2.4,0.5-4.8,0.9-7.2,1.1c0.9-1.7,1.8-3.5,2.7-5.2c0.3-0.5,1.1-1.2,1.7-1.2
			c8-2,16.6-3,23.6-4.9h0.3l2.1-0.2L290.4,40.1z M434.5,17.3c-0.6-0.6-1.3-1-2.1-1.2c-0.2,0.3-0.5,0.5-0.9,0.7c0-0.2-0.1-0.7,0-0.7
			c0.2-0.1,0.5-0.2,0.8-0.2c-0.1-0.9,3.7-1.8,0.3-2.3c-1.6-0.2-3.3-0.2-4.9,0.2c-4.2,0.9-8.5,1.5-12.8,1.8c-5.4,0.5-10.7,1.6-16,2.7
			c-2,0.5-3.6,0.2-5.4,0.2c-0.6,0-1.3,0.1-1.9,0.3l-1.9,0.1l-1.7,0.5l-1.6-0.1l-1.2-0.1l-0.8,0.4c-0.2-0.1-0.5-0.2-0.7-0.2
			c-1.5-0.2-2.9-0.2-4.4,0c-0.5,0.1-2.6,0.7-3.1,0.8c-0.6,0.1-2.7,0.3-3.1,0.2c-3.2,0.9-3.8,1.6-7,2.6c-1.6,0.5-3.1,1-4.6,1.5
			c-0.3,0.5-0.8,1-1.2,1c-6.6,1.3-1.5-0.3-6.7,2.8l-0.4,0.3c-2.6,0.7-5.1,1.3-7.1,3.1c-0.3,0.7-0.7,1.4-1.1,2.2
			c-0.7,1.1-0.9,2-0.1,3.2c1.4,2.1,0.8,2.6,3.1,4.4c0.2,0.2,0.1,0.5,0,0.9c0.9,0.6,1.9,1.1,2.8,1.6c-0.1,0.5-0.2,0.9-0.2,0.9
			c0.5,0.5,1.1,0.8,1.7,1c2,0.5,3.8,1.6,5.8,1.6c1.1,0,2.3,0.6,3.3,0.3c1.1-0.2,0.5-0.3,0.1-0.3l0.3,0c0.1,0,0.2,0,0.3,0
			c0.6,0.1,1.2,0.5,1.8,0.6c1.7,0.5,0.6,0.5,1.5,0.5c0.1,0.1,0.2,0.2,0.2,0.2c3-0.4,4.3,1.2,7.1,1.7c-5,3.2-7.4,6.7-12,8.9
			c-0.6-0.5-1.3-0.8-1.9,0.1c-0.2,0.3-0.3,0.6-0.4,0.9c-0.1,0-0.2,0-0.3-0.1l-0.7,0.5l0.8,0c-0.1,0.2-0.2,0.4-0.3,0.5
			c-0.5,0.5-1.3,0.8-1.8,0.7c-1.2-0.3-1.9,0.7-2.7,1.4c-0.9,0.7-1.5,2-2.7,1.6c-0.3-0.1-0.9,1.2-1.4,1.8c-0.2,0.3-0.5,1-0.6,1
			c-1.7-1-2.6,2.7-4.3,1.7c-0.1-0.1-0.6,0.8-0.6,1c0.8,3.1-0.6,2.1-1.5,1.8c-1.2-0.5-1.9,0.7-2.5,1.8c-0.2,0.4,0,1.4-0.2,2
			c-0.2,0.6-0.6,1.1-0.9,1.6c0.4-0.2,0.8-0.5,1.2-0.7c0.5-0.3,0.8-0.7,0.9-1.3c0.2-0.5,0.5-1,0.9-1.4c0,0,0.2,0.3,0.3,0.4
			c-0.2,0.3-0.4,0.6-0.7,0.9c-0.1,0.1-0.3,0-0.5,0.1c0.7,1.3,1.2,0.5,1.6,0.1c1.2-1.1,2.4-2.2,3.7-3.3l1.4,0.5l1.5-0.4
			c-0.1,0.1-0.2,0.2-0.3,0.4c-0.2,0.4-0.2,1-0.4,1.5c0.4,0.1,0.7,0.1,1.1,0.1c1.6-0.4,4.1,0.1,5.5-1.4c0.6-0.6,1.1-1.3,1.8-1.6
			c0.7-0.2,1.5,0.6,1.8-1.3c0-0.1,0-0.1,0.1-0.2c0.3-0.2,0.6-0.3,0.8-0.4c0.2-0.1,0.5-0.1,0.7-0.2c1.6-0.3,0.9-1.6,2.4-2.6
			c3-1.4,4.7-2.5,7-3.5c0-0.2,0-0.4,0.1-0.4c2.6-1.5,5.2-3.7,7.8-4c2.6-0.3,4-2.5,6-3.7c0.1-0.1,0.2-0.7,0.4-1.5
			c1.1-1.6,0.5-4.7-0.3-6.7c-0.7-0.3-1.5-0.5-2.2-0.7c-1.1-0.2-1.6-0.7-1.8-2c-0.2-1.5-1.1-2.1-2.4-1.5c-0.3,0.4-0.5,0.8-0.8,1.1
			c-0.2-0.3-0.5-0.5-0.8-0.7c-0.2-0.1-0.4-0.2-0.5-0.4c0.2-0.1,0.4-0.3,0.4-0.3c0.1,0.2,0.3-0.1,0.4,0.1l0.8-0.3
			c0-0.5-0.4-0.9-1.3-0.9c-1.4-0.1-2.8-0.7-4.2-1c-0.1,0-0.2,0-0.3,0c-1.8-0.2-2.4-0.6-4.2-1l0.1-1.3c-1.4,0.1-0.8,0.5-2.1,0.5
			c-1.4-0.4-2.8-0.9-4.2-1.3c-0.1,0.2-0.2,0.5-0.4,0.6c-0.9-0.4-1.8-0.8-2.8-0.8c-0.3,0-0.6,0-0.9,0.1c0.2-1.7,2.1-1.1,2.8-2
			c0.1-0.1,0.1-0.1,0.2-0.2c3-0.9,4-1.8,6.9-2.4c5.1-1,2.2-0.6,7.1-2.4c1.5-0.5,2.7-0.6,4-0.7h0.1c0.3,0,0.7-0.1,1-0.1
			c0.5-0.1,1.6-0.1,2.8-0.2c0.1,0.1,0.2,0,0.6-0.1l0.1,0c0.4-0.1,0.7-0.2,1-0.3l0.7-0.1h0l1.1,0.3l-0.1,0.6l0.5,0.2l5.8-2.2l0.1,0
			c0.4,0,0.8-0.1,1-0.1c0.5,0,2,1.2,2.5,1.1c3.1-0.1,4,2.1,2.6,5.1c-1.3,3-2.9,3.5-3.1,6.8c0,0.4,0.1,0.8,0.2,1.2
			c-0.5,1.1-1.1,2.2-1.6,3.3c0.1,0.2,0.1,0.5,0.1,0.7c-1.6,1.2-1.6,2.8-2.1,4.4c-0.1,0.4-0.2,0.9-0.3,1.3c-0.4,0.9-0.8,1.9-1.1,2.7
			c-0.2,0.2-0.4,0.3-0.6,0.5c-0.3,0.2-0.3,0.9-0.2,1.7c-1,2.7-0.3,2.8-0.9,5.6c-0.3,0.6-0.8,1-1.3,1.3c-0.2,0.1-0.1,1.3,0.2,1.4
			c0.2,0.1,0.4,0.2,0.6,0.2c-0.2,0.9-0.3,1.7-0.5,2.7c-0.2,0.1-0.3,0.2-0.5,0.3c-1.8,1.2-1.7,2.9-1.6,4.4c0.1,0.6,1.2,1,1.5,1.6
			l1.2,0.2c0.2-0.7,0.4-1.5,0.1-2c-0.1-0.2-0.2-0.5-0.2-0.8c0.2-0.2,0.5-0.4,0.8-0.6c0,0.2,0,0.5-0.1,0.7c0,0.2-0.4,0.3-0.5,0.7
			c2,0,1.8-1.2,2-2c0.1-0.2,0.1-0.5,0.2-0.8c0.4-0.4,0.7-0.8,1-1.2c-0.1-0.3-0.1-0.7-0.1-1.1c0.2,0,0.6-0.1,0.6,0
			c-0.1,0.3-0.2,0.6-0.3,0.9c0.9,0-0.7,4.5,1.8,0.5c1.2-1.8,2.1-3.7,2.9-5.7c0.2-0.4,0.3-0.9,0.5-1.3l0,0c0.5-0.5,1-0.8,1.4-1.3
			c1.7-2.4,1.1-2.4,1.6-5.2c0.2-1.1,0.2-2.4,0.9-3.3c0.6-0.9,2.2-1.5,1.3-3c0.4-0.9,0.9-1.9,1.3-2.9c2.3-3.1,2.5-4.5,3.8-7.9
			c1.4-4,3.4-7.7,5.3-11.4c0.2-0.5,1-1.1,1.5-1.1c7-0.5,11.3-1.5,16.9-4c1.8-1.3,3.7-2.6,5.6-3.8C435,17.7,434.7,17.5,434.5,17.3z
			 M336.8,61.4l-1.8-0.5l-2.7-0.3l-8.8,1.4c-0.7-0.3-1.3-0.5-1.6-0.3c-2,1.5-3.7,0.5-5.5,0.5c-1.8,0-3.5-0.6-5.4,0.7
			c-0.9,0.6-2.4,0.8-3.5,0.7c-0.8,0-1.4-0.9-2.3-1.2c-0.4-0.1-0.8-0.2-1.2-0.3c1.2-1.9,2.2-5.1,3-7.1c0.2,0.1,0.4,0.1,0.6,0.2l0.3,0
			c0.3-0.3,0.7-0.5,1.1-0.6c8.1-1.5,16.3-2.3,24.4-2.8c0.8-1.5,2.2-2.7,3.8-3.2c0.3-0.2,0.9-0.2,1.2-0.3c0.1,0,0.1-0.1,0.1-0.2
			c-0.3-0.2-0.5-0.4-0.8-0.6c-0.5-0.2-0.9-0.5-0.6-0.8c-0.5-0.8-0.7-1.8-0.5-2.7c-0.4-0.1-0.8-0.2-1.2-0.2c-0.8-0.2-1.6-0.5-2.3-0.3
			c-4,1.1-8.2,0.8-12.3,0.6c-3,0.6-6,0.9-9,1.1c0.9-1.6,1.9-3.2,2.9-4.9c0.3-0.5,1.3-2.3,1.9-2.3c7-0.5,11.6-1.4,17.1-3.5l4.1-0.5
			h0.4l2.1-0.2l-0.2-0.6l-2.1-0.2l0.1-0.4c0.4-0.3,0.7-0.6,1.1-1l3.1-0.7h0.1c0-0.5,0.1-0.9,0.1-1.4l-1-0.2l0.2-0.2
			c-0.1-0.1-0.2-0.2-0.4-0.4l1.2-0.2c0-0.4,0-0.9,0-1.3c0,0,0-0.2,0-0.3l-3.6,0.2l0.7-0.5l2.4-0.7c-0.1-0.1-0.2-0.2-0.3-0.4
			l-0.9-1.1l-9.5,0.9c-3.8,0.6-7.7,1.1-11.5,1.4c-4,0.4-8,0.9-12,1.7c-0.2,0.2-0.3,0.5-0.5,0.7c-2.1,5-4.6,10.9-7.3,15.7l-2.7-0.2
			c-1.1,0.3-2.1,0.5-3.2,0.5c-2.1,0.1-3.9,2.1-3.1,3.9c0.7,1.6,1.8,3,3.1,4.2c0.3,0.2,0.4,1.5,0.7,1.7c-0.6,1.2-1,2.4-1.2,3.8
			c-0.1,0.9,0.5,1.8,0.2,2.6c-0.2,0.5-0.5,1.1-0.8,1.6c-0.3,0-0.6,0-0.9-0.1l-0.5,0.1c0.2,0.3,0.5,0.6,0.6,0.9
			c-0.2,0.2-0.4,0.4-0.6,0.5c-1.9,1.3-2,3.1-2.7,4.8c-0.7,1.7-0.4,3.6-2.6,4.9c-0.6,0.3-0.3,2.1-0.4,3.2c-0.1,0.5,0.1,1.5-0.1,1.6
			l0.4,0.2c2.4-0.9,4.7-2,7.1-2.9c0.4-0.2,0.8-0.2,1.2,0c0.9-0.3,1.7-0.6,2.6-0.9c0.1,0,0.1,0,0.2,0c0.1-0.3,0.2-0.5,0.2-0.8
			c0.1-0.3,0.2-0.7,0.2-1c3.1,0,6.2-0.1,9.4-1c1-0.3,2.8-0.8,3.1-0.5c1.2,1.8,2.4,0.2,3.7-0.1c1.2-0.3,2.5,0.1,3.7,0.3
			c3,0.5,6.1,0.4,9.1-0.4c0.7-0.2,1.3-0.6,2-0.9c-0.4-0.4-0.6-1-1.1-1.3l0.5-0.5l0.7-0.9l2.7,0.9l4.5-1.9l0.8-0.7h0.1
			c0,0,0-0.1,0-0.1l1.3-1.1l0.6-2.2l-1.2-1.1L336.8,61.4z"/>
		<path class="st6" d="M290,40.5c1.6-0.5,3.2-1.1,4.8-1.8c1.2-1.1,1.2-1,2.3-2.2c-0.3-0.6,0.3-1.1,0.6-1.4l0.9-0.2
			c-0.1-0.4-0.2-0.7-0.4-1.1l-1.1-0.1l-0.7,0.1c-0.1-0.1-0.2-0.1-0.4-0.1c-0.1,0.1-0.1,0.2-0.2,0.2l-1.3,0.2
			c-0.1-0.2-0.2-0.5-0.1-0.6c0.2-0.1,0.5-0.2,0.4-0.4h0.5l2.4-0.3c-0.2-0.5-0.5-0.9-0.8-1.3l-0.6,0l-2.9,0.3l-1.1-0.2l-0.8,0.1
			c-0.3-0.1-0.6-0.2-0.9-0.3c-0.2-0.1-2.1,0.8-3.1,0.1c-3.8,0.7-17,2.9-20.8,3.2c-4,0.4-8,1-11.9,1.8c-0.2,0.2-0.3,0.5-0.4,0.7
			c-1.9,5.3-4.2,10.4-6.7,15.4c-0.9,0-1.7-0.1-2.6-0.1c-1,0.3-2,0.5-3,0.6c-2,0.2-3.6,2.2-2.7,4c0.7,1.6,1.7,3,3.1,4.2
			c0.3,0.2,0.6,0.4,0.8,0.6c-0.5,1.1-0.8,2.2-0.9,3.4c-0.1,0.9,0.6,1.8,0.3,2.6c-0.3,1.1-1,2.4-1.9,3c-1.9,1.3-1.9,3.2-2.5,4.9
			c-0.6,1.7-0.2,3.6-2.4,5c-0.5,0.3-0.2,2.1-0.2,3.3c0,0.6,0.2,1.6,0,1.6l0.4,0.2c2.3-1,4.6-2,7-3c0.4-0.2,0.8-0.2,1.2,0
			c0.9-0.3,1.7-0.6,2.6-0.9c0.1,0,0.1,0,0.2,0c0.1-0.3,0.1-0.5,0.2-0.8c0.2-1.2,0.3-2.6,1-3.6c0.7-1.1,2.6-1.6,1.3-3.5
			c-0.3-0.4,0.8-1.9,1.5-2.8c2-2.6,3.1-5.6,4.2-8.5c0.2-0.3,0.6-0.5,0.9-0.5c7.5-1.6,15.1-2.5,22.6-3.2c0.6-1.5,1.9-2.7,3.4-3.3
			c0.3-0.2,0.8-0.2,1.1-0.3c0.1-0.1,0.1-0.1,0.1-0.2c-0.3-0.2-0.5-0.4-0.8-0.6c-0.5-0.2-0.9-0.5-0.6-0.8c-0.5-0.9-0.7-1.8-0.6-2.8
			c-0.4-0.1-0.7-0.2-1.1-0.2c-0.7-0.1-1.5-0.5-2.1-0.3c-3.7,1.2-7.6,0.9-11.4,0.7c-2.4,0.5-4.8,0.9-7.2,1.1c0.9-1.7,1.8-3.5,2.7-5.2
			c0.3-0.5,1.1-1.2,1.7-1.2c8-2,16.6-3,23.6-4.9h0.3l2.1-0.2L290,40.5z M434.1,17.7c-0.6-0.6-1.3-1-2.1-1.2
			c-0.2,0.3-0.5,0.5-0.9,0.7c0-0.2-0.1-0.6,0-0.7c0.2-0.1,0.5-0.2,0.8-0.2c-0.1-0.9,3.7-1.8,0.3-2.3c-1.6-0.2-3.3-0.2-4.9,0.2
			c-4.2,0.9-8.5,1.5-12.8,1.8c-5.4,0.5-10.7,1.6-16,2.7c-2,0.5-3.6,0.2-5.4,0.2c-0.6,0-1.3,0.1-1.9,0.3l-1.9,0.1l-1.7,0.5l-1.6-0.1
			l-1.2-0.1L384,20c-0.2-0.1-0.5-0.2-0.7-0.2c-1.5-0.2-2.9-0.2-4.4,0c-0.5,0.1-2.6,0.7-3.1,0.8c-0.6,0.1-2.7,0.3-3.1,0.2
			c-3.2,0.9-3.8,1.6-7,2.6c-1.6,0.5-3.1,1-4.6,1.5c-0.3,0.5-0.8,1-1.2,1c-6.6,1.3-1.5-0.3-6.7,2.8l-0.4,0.3
			c-2.6,0.7-5.1,1.3-7.1,3.1c-0.3,0.7-0.7,1.4-1.1,2.2c-0.7,1.1-0.9,2-0.1,3.2c1.4,2.1,0.8,2.6,3.1,4.4c0.2,0.2,0.1,0.5,0,0.9
			c0.9,0.6,1.9,1.1,2.8,1.6c-0.1,0.5-0.2,0.9-0.2,0.9c0.5,0.5,1.1,0.8,1.7,1c2,0.5,3.8,1.6,5.8,1.6c1.1,0,2.3,0.6,3.3,0.3
			c1.1-0.3,0.5-0.3,0.1-0.3l0.3,0c0.1,0,0.2,0,0.3,0c0.6,0.1,1.2,0.5,1.8,0.6c1.7,0.5,0.6,0.5,1.5,0.5c0.1,0.1,0.2,0.2,0.2,0.2
			c3-0.4,4.3,1.2,7.1,1.7c-5,3.2-7.4,6.7-12,9c-0.6-0.5-1.3-0.8-1.9,0.1c-0.2,0.3-0.3,0.6-0.4,0.9c-0.1,0-0.2,0-0.3-0.1l-0.7,0.5
			l0.8,0c-0.1,0.2-0.2,0.4-0.3,0.5c-0.5,0.5-1.3,0.8-1.8,0.7c-1.2-0.3-1.9,0.7-2.7,1.4c-0.9,0.7-1.5,2-2.7,1.6
			c-0.3-0.1-0.9,1.2-1.4,1.8c-0.2,0.3-0.5,1-0.6,1c-1.7-1-2.6,2.7-4.3,1.7c-0.1-0.1-0.6,0.8-0.6,1c0.8,3.1-0.6,2.1-1.5,1.8
			c-1.2-0.5-1.9,0.7-2.5,1.8c-0.2,0.4,0,1.4-0.2,2c-0.2,0.6-0.6,1.1-0.9,1.6c0.4-0.2,0.8-0.5,1.2-0.7c0.5-0.3,0.8-0.7,0.9-1.3
			c0.2-0.5,0.5-1,0.9-1.4c0,0,0.2,0.3,0.3,0.4c-0.2,0.3-0.4,0.6-0.7,0.9c-0.1,0.1-0.3,0-0.5,0.1c0.7,1.3,1.2,0.5,1.6,0.1
			c1.2-1.1,2.4-2.2,3.7-3.3l1.4,0.5l1.5-0.4c-0.1,0.1-0.2,0.2-0.3,0.4c-0.2,0.5-0.3,1-0.4,1.5c0.4,0,0.7,0.2,1.1,0.1
			c1.6-0.4,4.1,0.1,5.5-1.4c0.5-0.6,1.1-1.3,1.8-1.6c0.7-0.2,1.5,0.6,1.8-1.3c0-0.1,0-0.1,0.1-0.2c0.3-0.2,0.6-0.3,0.8-0.4
			c0.2-0.1,0.5-0.1,0.7-0.2c1.6-0.3,0.9-1.6,2.4-2.6c3-1.4,4.7-2.5,7-3.4c0-0.2,0-0.4,0.1-0.4c2.6-1.5,5.2-3.7,7.8-4
			c2.6-0.3,4-2.5,6-3.7c0.1-0.1,0.2-0.7,0.4-1.5c1.1-1.6,0.5-4.7-0.3-6.7c-0.7-0.3-1.5-0.5-2.2-0.7c-1.1-0.2-1.6-0.7-1.8-2
			c-0.2-1.5-1.1-2.1-2.4-1.5l-0.8,1.1c-0.2-0.3-0.5-0.5-0.8-0.7c-0.2-0.1-0.4-0.2-0.5-0.4c0.2-0.1,0.4-0.3,0.4-0.3
			c0.1,0.2,0.3-0.1,0.4,0.1l0.8-0.3c0-0.5-0.4-0.9-1.3-0.9c-1.4-0.1-2.8-0.7-4.2-1c-0.1,0-0.2,0-0.3,0c-1.8-0.2-2.4-0.6-4.2-1
			l0.1-1.3c-1.4,0.1-0.8,0.5-2.1,0.5c-1.4-0.4-2.8-0.9-4.2-1.3c-0.1,0.2-0.2,0.5-0.4,0.7c-0.9-0.4-1.8-0.8-2.8-0.8
			c-0.3,0-0.6,0-0.9,0.1c0.2-1.7,2.1-1.1,2.8-2c0.1-0.1,0.1-0.1,0.2-0.2c3-0.9,4-1.8,6.9-2.4c5.1-1,2.2-0.6,7.1-2.4
			c1.5-0.5,2.7-0.6,4-0.7h0.1c0.3,0,0.7-0.1,1-0.1c0.5-0.1,1.6-0.1,2.8-0.2c0.1,0.1,0.2,0,0.6-0.1l0.1,0c0.4-0.1,0.7-0.2,1-0.3
			l0.7-0.1h0l1.1,0.3l-0.1,0.6l0.5,0.2l5.8-2.1l0.1,0c0.4,0,0.8-0.1,1-0.1c0.5,0,2,1.2,2.5,1.1c3.1-0.1,4,2.1,2.6,5.1
			c-1.3,3-2.9,3.5-3.1,6.8c0,0.4,0.1,0.8,0.2,1.2c-0.5,1.1-1.1,2.2-1.6,3.3c0.1,0.2,0.1,0.5,0.1,0.7c-1.6,1.2-1.6,2.8-2.1,4.4
			c-0.1,0.4-0.2,0.9-0.3,1.3c-0.4,0.9-0.8,1.9-1.1,2.7c-0.2,0.2-0.4,0.3-0.6,0.5c-0.3,0.2-0.3,0.9-0.2,1.7c-1,2.7-0.3,2.8-0.9,5.6
			c-0.3,0.6-0.8,1-1.3,1.3c-0.2,0.1-0.1,1.3,0.2,1.4c0.2,0.1,0.4,0.2,0.6,0.2c-0.2,0.9-0.3,1.7-0.5,2.7c-0.2,0.1-0.3,0.2-0.5,0.3
			c-1.8,1.2-1.7,2.9-1.6,4.4c0.1,0.6,1.2,1,1.5,1.6l1.2,0.2c0.2-0.7,0.4-1.5,0.1-2c-0.1-0.2-0.2-0.5-0.2-0.8
			c0.2-0.2,0.5-0.4,0.8-0.6c0,0.2,0,0.5-0.1,0.7c0,0.2-0.4,0.3-0.5,0.7c2,0,1.8-1.2,2-2c0.1-0.2,0.1-0.5,0.2-0.8
			c0.4-0.4,0.7-0.8,1-1.2c-0.1-0.3-0.1-0.7-0.1-1.1c0.2,0,0.6-0.1,0.6,0.1c-0.1,0.3-0.2,0.6-0.3,0.9c0.9,0-0.7,4.5,1.8,0.5
			c1.2-1.8,2.1-3.7,2.9-5.7c0.2-0.4,0.3-0.9,0.5-1.3l0,0c0.5-0.5,1-0.8,1.4-1.3c1.7-2.4,1.1-2.4,1.6-5.2c0.2-1.1,0.2-2.4,0.9-3.3
			c0.6-0.9,2.2-1.5,1.3-3c0.4-0.9,0.9-1.9,1.3-2.9c2.3-3.2,2.5-4.5,3.8-8c1.4-4,3.4-7.7,5.3-11.4c0.2-0.5,1-1.1,1.5-1.1
			c7-0.5,11.3-1.5,16.9-4c1.8-1.3,3.7-2.6,5.6-3.8C434.6,18.2,434.3,18,434.1,17.7z M336.4,61.8l-1.8-0.5L332,61l-8.8,1.4
			c-0.7-0.3-1.3-0.5-1.6-0.3c-2,1.5-3.7,0.5-5.5,0.5c-1.8,0-3.5-0.6-5.4,0.7c-0.9,0.6-2.4,0.8-3.5,0.7c-0.8,0-1.4-0.9-2.3-1.2
			c-0.4-0.1-0.8-0.2-1.2-0.3c1.2-1.9,2.2-5.1,3-7.1c0.2,0.1,0.4,0.1,0.6,0.2l0.3,0c0.3-0.3,0.7-0.5,1.1-0.6
			c8.1-1.5,16.3-2.3,24.4-2.8c0.8-1.6,2.2-2.7,3.8-3.2c0.3-0.2,0.9-0.2,1.2-0.3c0.1,0,0.1-0.1,0.1-0.2c-0.3-0.2-0.6-0.4-0.8-0.6
			c-0.5-0.2-0.9-0.5-0.6-0.8c-0.5-0.8-0.7-1.8-0.5-2.7c-0.4-0.1-0.8-0.2-1.2-0.2c-0.8-0.2-1.6-0.5-2.3-0.3c-4,1.1-8.2,0.7-12.3,0.6
			c-3,0.6-6,0.9-9,1.1c0.9-1.6,1.9-3.2,2.9-4.9c0.3-0.5,1.3-2.3,1.9-2.3c7-0.5,11.6-1.4,17.1-3.6l4.1-0.5h0.4l2.1-0.2l-0.2-0.6
			l-2.1-0.2l0.1-0.4c0.4-0.3,0.7-0.6,1.1-1l3.1-0.7h0.1c0-0.5,0.1-0.9,0.1-1.4l-1-0.2l0.2-0.2c-0.1-0.1-0.2-0.2-0.4-0.4l1.2-0.2
			c0-0.4,0-0.9,0-1.3c0,0,0-0.2,0-0.3l-3.6,0.2l0.7-0.5l2.4-0.7c-0.1-0.1-0.2-0.2-0.3-0.4c-0.3-0.4-0.6-0.7-0.9-1.1l-9.5,0.9
			c-3.8,0.7-7.7,1.1-11.5,1.4c-4,0.4-8,0.9-12,1.7c-0.2,0.2-0.3,0.5-0.5,0.7c-2.1,5-4.6,10.9-7.3,15.7c-0.9,0-1.8-0.1-2.7-0.2
			c-1.1,0.3-2.1,0.5-3.3,0.5c-2.1,0.1-3.9,2.1-3.1,3.9c0.7,1.6,1.8,3,3.1,4.2c0.3,0.2,0.4,1.5,0.7,1.7c-0.6,1.2-1,2.4-1.2,3.8
			c-0.1,0.9,0.5,1.8,0.2,2.6c-0.2,0.5-0.5,1.1-0.8,1.6c-0.3,0-0.6,0-0.9-0.1l-0.5,0c0.2,0.3,0.5,0.6,0.6,0.9
			c-0.2,0.2-0.4,0.4-0.6,0.5c-1.9,1.3-2,3.1-2.7,4.8c-0.7,1.7-0.4,3.6-2.6,4.9c-0.6,0.3-0.3,2.1-0.4,3.2c-0.1,0.5,0.1,1.5-0.1,1.6
			l0.4,0.2c2.4-0.9,4.7-2,7.1-2.9c0.4-0.2,0.8-0.2,1.2,0c0.9-0.3,1.7-0.6,2.6-0.9c0.1,0,0.1,0,0.2,0c0.1-0.3,0.2-0.5,0.2-0.8
			c0.1-0.3,0.2-0.7,0.2-1c3.1,0,6.2-0.1,9.4-1c1-0.3,2.8-0.8,3.1-0.5c1.2,1.8,2.4,0.2,3.7-0.1c1.2-0.3,2.5,0.1,3.7,0.3
			c3,0.5,6.1,0.4,9.1-0.4c0.7-0.2,1.3-0.6,2-0.9c-0.4-0.4-0.6-1-1.1-1.3l0.5-0.5l0.7-0.9l2.7,0.9l4.5-1.9l0.8-0.6h0.1
			c0,0,0-0.1,0-0.1l1.3-1.1l0.6-2.2l-1.2-1.1L336.4,61.8z"/>
		
			<linearGradient id="SVGID_5_" gradientUnits="userSpaceOnUse" x1="332.9383" y1="110.6135" x2="340.0983" y2="29.3311" gradientTransform="matrix(1 0 0 -1 0 138)">
			<stop  offset="0" style="stop-color:#FFF922"/>
			<stop  offset="0.12" style="stop-color:#FFBF41;stop-opacity:0.77"/>
			<stop  offset="0.25" style="stop-color:#FF8D5D;stop-opacity:0.57"/>
			<stop  offset="0.37" style="stop-color:#FF6275;stop-opacity:0.39"/>
			<stop  offset="0.5" style="stop-color:#FF3F88;stop-opacity:0.25"/>
			<stop  offset="0.62" style="stop-color:#FF2397;stop-opacity:0.14"/>
			<stop  offset="0.75" style="stop-color:#FF10A1;stop-opacity:6.000000e-02"/>
			<stop  offset="0.87" style="stop-color:#FF04A8;stop-opacity:2.000000e-02"/>
			<stop  offset="1" style="stop-color:#FF00AA;stop-opacity:0"/>
		</linearGradient>
		<path class="st7" d="M236.5,86.8l-0.7,0l-0.4-0.2V85c-0.2,0.1-0.4,0.3-0.4,0.5c0-0.2,0-0.4,0-0.5c0-0.3-0.1-0.6-0.1-0.9
			c0-0.3,0-0.7,0-1.1c-0.1-1.2-0.2-2.4,0.7-2.9c1.2-0.8,1.4-1.7,1.6-3c0.1-0.5,0.2-1.1,0.4-1.6c0.1-0.4,0.2-0.8,0.3-1.2
			c0.4-1.4,0.8-2.9,2.5-4.1c0.6-0.5,1.3-1.5,1.6-2.6c0-0.3,0-0.6-0.2-0.9c-0.2-0.5-0.2-1-0.2-1.5c0.1-1,0.3-2,0.7-3
			c-0.1-0.1-0.2-0.2-0.3-0.3c-1.4-1.3-2.5-2.8-3.2-4.5c-0.5-1-0.4-2.3,0.2-3.2c0.7-1.2,1.9-1.9,3.3-2c0.9-0.1,1.9-0.3,2.8-0.6l0.3,0
			c0.7,0,1.4,0.1,2,0.1c2.4-4.8,4.5-9.7,6.4-14.7l0.1-0.2c0.1-0.1,0.2-0.3,0.2-0.4c0.1-0.1,0.1-0.2,0.2-0.3l0.6-0.4
			c4-0.8,8-1.4,12.1-1.8c3.6-0.3,16.5-2.4,20.7-3.2l0.6,0.2c0.4,0.3,1.5,0,1.9-0.1c0.3-0.1,0.6-0.2,0.9-0.1c0.3,0.1,0.6,0.2,0.9,0.3
			l0.6-0.1h0.2l1,0.2l2.8-0.3l0.6,0l0.8,0.4c0.3,0.5,0.6,0.9,0.8,1.4l-0.3,0.5h0.1l0.7,0.5c0.2,0.4,0.3,0.8,0.4,1.3l-0.7,1l-0.6,0.1
			c-0.1,0.1-0.2,0.2-0.2,0.3c0,0,0,0,0-0.1l-0.1,0.9c-0.5,0.6-1,1.1-1.6,1.6c-0.2,0.2-0.4,0.4-0.7,0.7l-0.2,0.2
			c-1.5,0.7-3,1.3-4.5,1.7l-0.4,0.6l-2.2,0.2H288c-3.7,1-7.7,1.7-12,2.5c-3.8,0.7-7.7,1.4-11.5,2.4l-0.1,0c-0.4,0.2-0.8,0.4-1,0.8
			l-0.4,0.7c-0.5,1-1.1,2-1.6,3.1c1.9-0.2,3.7-0.5,5.5-0.9l0.2,0l1.2,0c3.5,0.1,6.7,0.2,9.9-0.7c0.7-0.2,1.4,0,2,0.2
			c0.2,0.1,0.4,0.1,0.5,0.2c0.3,0.1,0.6,0.1,0.9,0.2l0.2,0l0.7,0.9c-0.1,0.8,0.1,1.6,0.5,2.3l0,0.3c0.1,0.1,0.2,0.1,0.3,0.2l0.2,0.2
			c0.2,0.2,0.4,0.4,0.6,0.5l0.4,0.8c0,0.3-0.1,0.5-0.3,0.7l-0.4,0.2c-0.2,0.1-0.4,0.1-0.5,0.1c-0.1,0-0.2,0.1-0.4,0.1l-0.2,0.1
			c-1.3,0.5-2.4,1.5-3,2.9l-0.7,0.5c-8.9,0.8-16.1,1.8-22.5,3.1c-0.1,0-0.2,0.1-0.4,0.2c-1,2.8-2.2,5.8-4.3,8.5
			c-0.9,1.2-1.2,1.8-1.3,2c1.1,1.8-0.1,2.9-0.8,3.5c-0.2,0.2-0.5,0.4-0.6,0.7c-0.5,0.7-0.6,1.7-0.8,2.7c0,0.2-0.1,0.5-0.1,0.7
			c-0.1,0.3-0.1,0.5-0.2,0.8v0.1l-0.6,0.7l-0.1,0c-0.9,0.3-1.7,0.6-2.6,0.9l-0.7,0c-0.2-0.1-0.3-0.1-0.5,0c-1.1,0.5-2.2,0.9-3.3,1.4
			C238.9,85.8,237.7,86.3,236.5,86.8z M236.5,81.5c-0.1,0.5-0.1,1,0,1.4c0,0.4,0.1,0.9,0,1.2c0,0.2,0,0.4,0,0.6v0.1
			c1-0.4,1.9-0.8,2.9-1.2c1.1-0.5,2.2-0.9,3.3-1.4c0.5-0.2,1-0.2,1.6-0.1c0.6-0.2,1.3-0.5,2-0.7c0-0.1,0-0.2,0.1-0.3
			c0-0.2,0.1-0.4,0.1-0.6c0.2-1.1,0.4-2.3,1-3.3c0.3-0.4,0.6-0.7,0.9-1c0.8-0.7,0.9-0.8,0.4-1.5c-0.5-0.7-0.1-1.6,1.5-3.8
			c2-2.5,3.1-5.5,4.1-8.2l0.2-0.3c0.4-0.4,0.8-0.7,1.4-0.8c6.4-1.4,13.5-2.4,22.2-3.1c0.7-1.5,2-2.6,3.5-3.2
			c-0.3-0.2-0.5-0.5-0.6-0.8c0-0.1,0-0.2,0-0.3c-0.3-0.7-0.5-1.4-0.5-2.2l-0.4-0.1c-0.2,0-0.5-0.1-0.7-0.2c-0.3-0.1-0.7-0.2-1-0.2
			c-3.5,1.1-7.1,0.9-10.5,0.8l-1.1,0c-2.4,0.5-4.8,0.9-7.2,1.1l-0.9-1.3c0.8-1.5,1.6-3,2.4-4.5l0.4-0.7c0.4-0.7,1.4-1.6,2.3-1.7
			c3.8-0.9,7.7-1.6,11.5-2.4c4.3-0.8,8.3-1.5,12-2.5l0.2,0h0.3l1.5-0.1l0.2-0.5c1.6-0.5,3.1-1,4.6-1.7l0.6-0.6
			c0.4-0.4,0.8-0.7,1.2-1.2c0-0.6,0.2-1.2,0.7-1.6l-0.3,0l-0.3,0l-0.3,0.1l-1.3,0.2l-1-0.7c0-0.1,0-0.1-0.1-0.2
			c-0.3-0.8,0.1-1.2,0.4-1.3c0.1,0,0.1-0.1,0.2-0.1c-0.2,0.2-0.3,0.6-0.1,0.9l0.5-0.9l-1,0.1h-0.2l-1-0.2l-0.7,0.1l-0.4-0.1
			c-0.2-0.1-0.5-0.2-0.7-0.2l-0.2,0.1c-0.7,0.2-2,0.5-3,0.1c-3.7,0.6-16.7,2.8-20.6,3.2c-3.8,0.3-7.7,0.9-11.5,1.7l-0.2,0.3
			c-1.9,5.3-4.2,10.4-6.7,15.4l-0.8,0.5c-0.8,0-1.6-0.1-2.5-0.1c-1,0.3-2,0.5-3.1,0.6c-0.8,0.1-1.5,0.5-1.9,1.2
			c-0.3,0.5-0.4,1.1-0.1,1.6c0.6,1.5,1.6,2.8,2.8,3.9c0.2,0.2,0.5,0.4,0.7,0.5l0.3,1c-0.4,1-0.7,2-0.8,3.1c0,0.3,0.1,0.6,0.2,0.9
			c0.2,0.6,0.3,1.2,0.2,1.9c-0.2,0.5-0.8,2.5-2.2,3.5c-1.2,0.9-1.5,1.9-1.8,3.2c-0.1,0.4-0.2,0.9-0.4,1.3c-0.2,0.4-0.2,0.9-0.3,1.3
			C238.5,78.8,238.2,80.3,236.5,81.5z M282.9,53.9l-0.1,0.6c0.1-0.1,0.2-0.3,0.1-0.4C282.9,54,282.9,54,282.9,53.9z M286.4,80.4
			l-0.7,0l-0.4-0.2l0-1.6c-0.2,0.1-0.4,0.3-0.4,0.5c0-0.2,0-0.4,0-0.5c0-0.3,0-0.6,0-0.9c0-0.3,0-0.6,0-1c0-1.2,0-2.4,0.8-2.8
			c1.3-0.8,1.5-1.7,1.8-2.9c0.1-0.5,0.3-1.1,0.5-1.6c0.2-0.4,0.3-0.7,0.4-1.1c0.5-1.3,0.9-2.8,2.6-4c-0.1-0.1-0.1-0.1-0.2-0.2
			l-0.2-0.5l0.8-1l0.2,0l0.2,0h0.2l0.2,0c0.2-0.3,0.3-0.6,0.4-0.9c0-0.3,0-0.6-0.1-0.9c-0.2-0.5-0.2-1-0.2-1.5
			c0.2-1.3,0.5-2.5,1.1-3.6c-0.1-0.2-0.2-0.5-0.2-0.7c0-0.2-0.1-0.4-0.2-0.5c-1.4-1.2-2.5-2.7-3.3-4.4c-0.5-1-0.4-2.1,0.2-3.1
			c0.8-1.3,2.1-2,3.6-2.1c1-0.1,2.1-0.2,3.1-0.5l0.2,0l2.1,0.1c2.5-4.5,4.8-10,6.9-14.8l0.2-0.5c0.1-0.1,0.2-0.3,0.3-0.4l0.2-0.3
			l0.5-0.4c4-0.8,8-1.4,12.1-1.8c4.2-0.3,8-0.8,11.4-1.4h0.1l9.5-0.9l0.7,0.3l0.6,0.7l0.3,0.4l0.2,0.2l0.1,0.2l-0.2,0.7h0l0.9,0.9
			v0.3c0,0.4,0,0.9,0,1.3l-0.4,0.4l0.3,0.4c0,0.5-0.1,1-0.1,1.4l-0.7,0.8h-0.1l-2.4,0.5h0.1l0.7,0.6l0.2,0.6l-0.7,1.1l-2.2,0.2h-0.4
			l-4,0.5c-5.4,2.1-9.9,3-17.1,3.6c-0.2,0.1-0.5,0.5-1.3,1.8l0,0.1c-0.8,1.3-1.4,2.4-2,3.5c2.4-0.2,4.9-0.5,7.3-1l0.2,0l1.3,0.1
			c3.7,0.2,7.2,0.3,10.7-0.6c0.7-0.2,1.4,0,2,0.2c0.2,0.1,0.4,0.1,0.6,0.2c0.3,0.1,0.7,0.2,1,0.2l0.2,0l0.7,0.9
			c-0.1,0.8,0,1.5,0.4,2.2l0,0.3c0.1,0.1,0.2,0.1,0.3,0.2l0.2,0.2c0.2,0.2,0.4,0.4,0.7,0.5l0.4,0.8c0,0.3-0.2,0.5-0.3,0.7l-0.4,0.2
			c-0.2,0.1-0.4,0.1-0.6,0.1c-0.2,0-0.3,0.1-0.5,0.1l-0.2,0.1c-1.4,0.5-2.6,1.5-3.3,2.8l-0.7,0.5c-9.6,0.6-17.3,1.6-24.3,2.8
			c-0.2,0-0.5,0.2-0.6,0.3l-0.6,0.3l-0.3,0l-0.2,0c-0.2,0.4-0.3,0.8-0.5,1.2c-0.5,1.4-1.1,2.9-1.7,4.2l0.2,0
			c0.5,0.2,0.9,0.4,1.3,0.7c0.2,0.2,0.5,0.4,0.8,0.4c0.9,0.1,2.2-0.1,3-0.6c1.7-1.1,3.3-1,4.7-0.9c0.4,0,0.8,0.1,1.2,0.1
			c0.5,0,1.1,0.1,1.6,0.2c1.2,0.2,2.2,0.4,3.4-0.5c0.6-0.5,1.4-0.2,2.2,0.1l8.5-1.3h0.2l2.8,0.3l1.8,0.5l0.3,0.1l1.2,0.8l1.2,1.1
			l0.2,0.9l-0.6,2.2l-0.3,0.4l-1.3,1.1l-0.1-0.1l-0.1,0.1l0.1,0.1l-0.8,0.6l-0.2,0.2l-4.5,1.9l-0.6,0l-2.1-0.7l-0.3,0.3
			c0.1,0.1,0.2,0.2,0.2,0.3c0.1,0.1,0.2,0.3,0.3,0.4l-0.3,1.3c-0.2,0.1-0.4,0.2-0.6,0.3c-0.5,0.3-1,0.5-1.5,0.7
			c-3.1,0.9-6.3,1-9.5,0.4l-0.6-0.1c-0.9-0.2-1.9-0.4-2.7-0.2c-0.3,0.1-0.6,0.2-0.9,0.4c-0.9,0.4-2.3,1.2-3.5-0.4
			c-0.3,0-0.9,0.1-2.3,0.5c-3.1,0.9-6.1,1.1-9,1.1c0,0.1-0.1,0.2-0.1,0.3c-0.1,0.2-0.1,0.5-0.2,0.7l0,0.1l-0.7,0.6l-0.1,0
			c-0.9,0.3-1.8,0.6-2.6,0.9l-0.7,0c-0.2-0.1-0.3-0.1-0.5,0c-1.1,0.5-2.2,0.9-3.3,1.4C288.9,79.4,287.7,79.9,286.4,80.4z
			 M286.7,75.3c-0.1,0.5-0.1,0.9-0.1,1.4c0,0.4,0,0.8,0,1.2c0,0.2,0,0.4,0,0.6c1-0.4,1.9-0.8,2.9-1.2c1.1-0.5,2.2-0.9,3.3-1.4
			c0.5-0.2,1-0.2,1.5-0.1c0.6-0.2,1.4-0.5,2.1-0.7c0-0.1,0.1-0.2,0.1-0.3c0.1-0.2,0.1-0.4,0.2-0.6l0.1-0.3l0.9-0.7
			c2.9,0,6.1-0.1,9.2-1c2.6-0.8,3.6-0.8,4.1-0.1c0.4,0.6,0.5,0.6,1.5,0.1c0.4-0.2,0.9-0.4,1.3-0.5c1.2-0.2,2.4,0,3.4,0.2
			c0.2,0,0.4,0.1,0.6,0.1c2.9,0.5,5.9,0.4,8.7-0.4c0.3-0.1,0.6-0.2,0.9-0.4c-0.1-0.1-0.2-0.2-0.3-0.3l-0.1-1.3l0.5-0.4l0.6-0.8
			l1-0.3l2.4,0.8l4-1.7l0.7-0.6l0.1,0l0.1-0.1l1.1-1l0.4-1.5l-0.7-0.7l-0.9-0.6l-1.6-0.4l-2.5-0.3l-8.7,1.3l-0.5-0.1
			c-0.3-0.1-0.6-0.2-0.9-0.3c-1.7,1.2-3.3,0.9-4.5,0.7c-0.5-0.1-0.9-0.1-1.3-0.2c-0.5,0-0.9,0-1.3-0.1c-1.3-0.1-2.4-0.2-3.6,0.6
			c-1.4,0.9-3.4,0.9-4,0.9c-0.6-0.1-1.2-0.3-1.7-0.8c-0.2-0.2-0.5-0.3-0.8-0.5c-0.4-0.1-0.7-0.2-1.1-0.2l-0.6-1.3
			c0.8-1.3,1.5-3.3,2.2-5c0.3-0.7,0.5-1.4,0.8-2l1-0.5c0.2,0,0.3,0.1,0.4,0.1c0.4-0.3,0.8-0.5,1.3-0.5c6.9-1.3,14.6-2.2,24.1-2.8
			c0.9-1.5,2.3-2.6,3.9-3.1c-0.3-0.2-0.5-0.5-0.5-0.8c0-0.1,0-0.2,0-0.3c-0.3-0.6-0.5-1.4-0.5-2.1l-0.4-0.1c-0.2,0-0.5-0.1-0.7-0.2
			c-0.4-0.1-0.8-0.2-1.2-0.2c-3.8,1-7.6,0.8-11.3,0.7l-1.2-0.1c-3,0.6-6,0.9-9.1,1.1l-0.8-1.3c0.9-1.6,1.8-3.1,2.9-4.9l0-0.1
			c1.2-1.9,1.8-2.6,2.5-2.7c7.1-0.5,11.6-1.5,16.9-3.5l0.2-0.1l3.8-0.4l-0.3-0.4l0.1-0.4l0.3-0.4c0.4-0.3,0.7-0.6,1.1-0.9l0.4-0.2
			l2.4-0.5h0l-0.2-0.5l-0.1,0.2l-0.1-0.1c-0.1-0.1-0.2-0.2-0.3-0.3l0.2-0.6v0l0,0l0.2-0.7l-2.2,0.1l-0.5-1.6l0.7-0.5l0.3-0.1
			l1.1-0.3l-0.1-0.1l-9.1,0.8c-3.5,0.6-7.3,1.1-11.6,1.4c-3.9,0.3-7.7,0.9-11.5,1.6v0l-0.2,0.3l-0.1,0.3c-2.1,5-4.6,10.7-7.2,15.4
			l-0.8,0.4c-0.9,0-1.7-0.1-2.5-0.1c-1.1,0.3-2.2,0.5-3.3,0.6c-0.9,0.1-1.7,0.5-2.2,1.3c-0.3,0.4-0.3,0.9-0.1,1.4
			c0.7,1.5,1.6,2.8,2.9,3.9c0.3,0.3,0.5,0.7,0.6,1.3c0.1,0.2,0.1,0.4,0.2,0.5c-0.1-0.1-0.1-0.1-0.2-0.2l0.3,1.1
			c-0.6,1.1-1,2.3-1.1,3.5c0,0.3,0,0.6,0.1,0.9c0.2,0.6,0.2,1.3,0,1.9c-0.2,0.6-0.5,1.2-0.9,1.7l-0.7,0.3l-0.1,0.6
			c-0.2,0.2-0.5,0.5-0.8,0.7c-1.2,0.9-1.6,1.9-2,3.1c-0.1,0.4-0.3,0.8-0.5,1.3c-0.2,0.4-0.3,0.9-0.4,1.3
			C288.9,72.6,288.5,74.1,286.7,75.3z M337.6,47.1l-0.1,0.7c0.1-0.1,0.2-0.3,0.2-0.4C337.6,47.3,337.6,47.2,337.6,47.1z M338.9,79
			l-1.2-1.2c0.1-0.2,0.2-0.3,0.3-0.5c0.2-0.3,0.4-0.5,0.5-0.9c0-0.2,0-0.5,0-0.8c0-0.5,0-1.1,0.2-1.5c0.6-1.1,1.7-2.9,3.6-2.2
			c0.1,0,0.2,0.1,0.4,0.2l0.2,0.1c0-0.3-0.1-0.7-0.2-1c-0.2-0.7,0.6-1.7,0.8-1.9c0.3-0.2,0.7-0.2,1-0.1c0.2,0.1,0.4,0,1.1-0.7
			c0.5-0.6,1.4-1.4,2.5-1.3c0.1-0.2,0.2-0.3,0.3-0.5c0.1-0.2,0.3-0.4,0.4-0.6c0.5-0.9,1.1-1.8,2-1.5c0.3,0.1,0.5,0,1.1-0.7
			c0.2-0.3,0.5-0.5,0.8-0.8c0.2-0.1,0.4-0.3,0.5-0.5c0.7-0.6,1.6-1.4,2.9-1.1c0.3,0,0.6-0.2,0.9-0.4l-0.2-0.6l0.7-0.5h0.1
			c0.1-0.2,0.2-0.4,0.4-0.6c0.5-0.9,1.7-1.2,2.5-0.6c0,0,0.1,0,0.1,0.1c2.2-1.2,4-2.7,5.8-4.3c1.3-1.1,2.5-2.2,4.1-3.3
			c-0.4-0.2-0.8-0.3-1.1-0.4c-1.3-0.5-2.3-0.9-3.8-0.7c-0.2,0-0.5,0-0.7-0.2c-0.2,0-0.5-0.1-0.7-0.3c-0.2-0.1-0.5-0.2-0.7-0.2
			c-0.3-0.1-0.5-0.2-0.8-0.3c-0.2-0.1-0.3-0.2-0.5-0.2c-0.2,0.1-0.5,0.2-0.7,0.2c-0.9,0.2-1.6,0-2.4-0.1c-0.4-0.1-0.8-0.2-1.2-0.2
			c-1.5,0-2.8-0.5-4.2-1c-0.6-0.2-1.3-0.5-1.9-0.6c-0.8-0.2-1.4-0.6-2-1.2c-0.4-0.3-0.4-0.7-0.3-1.1c-0.8-0.4-1.6-0.9-2.3-1.3
			l-0.4-0.9c0-0.1,0-0.2,0.1-0.2c-1.4-1.2-1.8-1.9-2.1-2.7c-0.2-0.6-0.5-1.1-0.9-1.6c-1.2-1.7-0.6-3.1,0-4.1c0.4-0.7,0.7-1.3,1-2
			l0-0.1l0.2-0.3c2-1.8,4.2-2.4,6.7-3.1l0.6-0.2l0.3-0.3c2-1.2,2.4-1.6,2.4-1.8c0.3-0.5,0.6-0.5,1.4-0.6c0.6-0.1,1.4-0.2,3.1-0.5
			c0.3-0.2,0.5-0.4,0.6-0.6l0.5-0.4l1.5-0.5c1-0.3,2.1-0.7,3.1-1c1.1-0.3,2.2-0.8,3.3-1.3c1.2-0.5,2.4-1,3.7-1.4h0.5
			c0.9,0,1.8-0.1,2.7-0.2c0.2,0,0.8-0.2,1.3-0.4c0.6-0.2,1.2-0.3,1.8-0.5c1.5-0.2,3.1-0.1,4.5,0c0.2,0,0.4,0.1,0.6,0.1l0.4-0.2
			l0.4-0.1l1.2,0.1l1.5,0.1l1.6-0.4l0.2,0l1.7-0.1c0.7-0.2,1.3-0.3,2-0.3c0.5,0,1,0,1.5,0c1.3,0.1,2.5,0,3.8-0.2
			c4.9-1.1,10.5-2.3,16.1-2.8c4.3-0.3,8.5-0.9,12.7-1.8c1.7-0.4,3.5-0.4,5.2-0.2c1,0.1,2,0.3,2.2,1.2c0.2,0.9-0.5,1.3-1.1,1.7
			l-0.1,0.1c0.5,0.2,1.1,0.6,1.5,1.1c0.2,0.2,0.4,0.4,0.6,0.6l-0.1,1.4c-1.8,1.2-3.6,2.4-5.6,3.8l-0.2,0.1c-5.6,2.5-10,3.5-17.2,4.1
			c-0.3,0.1-0.6,0.4-0.8,0.7l-0.5,0.9c-1.8,3.5-3.5,6.8-4.8,10.4c-0.2,0.5-0.3,0.9-0.5,1.3c-0.9,2.5-1.4,4-3.4,6.8
			c-0.4,0.8-0.7,1.7-1.1,2.4c0.6,1.4-0.4,2.3-0.9,2.8c-0.2,0.2-0.4,0.4-0.5,0.6c-0.4,0.6-0.5,1.5-0.6,2.4c0,0.2-0.1,0.4-0.1,0.6
			c-0.1,0.7-0.2,1.2-0.2,1.7c-0.1,1.4-0.2,2-1.5,3.9c-0.3,0.4-0.7,0.8-1.1,1.1c-0.1,0.1-0.2,0.2-0.4,0.3l-0.1,0.2
			c-0.1,0.3-0.2,0.5-0.3,0.8c-0.8,2.1-1.8,4.1-3,5.9c-0.9,1.4-1.5,2.2-2.4,2c-0.6-0.2-0.7-0.6-0.8-1.1l-0.1,0.3
			c0,0.1-0.1,0.2-0.1,0.3c-0.1,0.6-0.3,1.9-1.8,2.2c0,0.5-0.1,1.1-0.3,1.6l-1,0.6l-1.2-0.2l-0.6-0.5c-0.2-0.2-0.3-0.3-0.5-0.5
			c-0.5-0.3-1-0.8-1.1-1.5c-0.1-1.6-0.3-3.7,2-5.2l0.2-0.1c0.1-0.5,0.2-1,0.3-1.6c-0.5-0.3-0.6-0.9-0.7-1.4c-0.1-0.6,0-1.3,0.5-1.5
			c0.4-0.2,0.7-0.5,0.9-0.8c0.2-0.7,0.3-1.5,0.3-2.3c0-1.1,0.2-2.2,0.6-3.2c-0.1-0.9-0.1-1.8,0.6-2.3c0.1-0.1,0.2-0.2,0.3-0.3
			c0.3-0.9,0.7-1.6,1-2.5c0.1-0.5,0.2-0.9,0.3-1.3c0.1-0.3,0.2-0.7,0.3-1c0.3-1.1,0.6-2.4,1.8-3.5l0-0.1l0.1-0.6c0.5-1,1-2,1.5-3
			c-0.1-0.4-0.2-0.8-0.2-1.2c0.1-2.4,0.9-3.5,1.7-4.7c0.5-0.8,1-1.6,1.4-2.4c0.6-1.4,0.7-2.6,0.3-3.2c-0.5-0.6-1.4-0.7-2.1-0.7
			c-0.5,0-1-0.2-1.7-0.7c-0.3-0.2-0.5-0.3-0.8-0.4c-0.2,0-0.4,0-0.8,0.1l-5.7,2.1h-0.6l-0.5-0.2l-0.5-0.8l-0.3-0.1l-0.4,0.1
			c-0.3,0.1-0.7,0.2-1.1,0.3h-0.1c-0.3,0.1-0.6,0.2-0.9,0.2c-0.8,0.1-1.5,0.2-2,0.2c-0.3,0-0.5,0-0.7,0.1c-0.3,0-0.7,0.1-1,0.1v-0.1
			l-0.1-0.1v0.1h-0.2c-1.2,0-2.4,0.2-3.6,0.6c-1.1,0.3-2.1,0.8-3.1,1.3c-0.8,0.4-1.1,0.5-4.2,1.2c-1.3,0.2-2.5,0.7-3.7,1.2
			c-1,0.4-2,0.8-3,1.1c-0.3,0.3-0.7,0.5-1.1,0.6c0.4,0.1,0.7,0.2,1.1,0.4l0.9-0.4c1.5,0.5,2.9,0.9,4.1,1.3c0.2,0,0.4,0,0.5-0.1
			c0.4-0.2,0.9-0.4,1.5-0.4l0.9,0.9l0,0.6c0.4,0.1,0.7,0.2,1,0.3c0.8,0.2,1.6,0.4,2.4,0.5h0.1h0.4c0.5,0.1,0.9,0.2,1.3,0.4
			c0.9,0.3,1.8,0.5,2.7,0.6c1.4,0.1,1.9,0.8,2,1.3c0.6-0.2,1.2-0.1,1.7,0.2c0.5,0.3,1.1,0.9,1.3,2.2c0.2,1,0.5,1.2,1.1,1.3
			c0.8,0.2,1.6,0.4,2.4,0.7l0.5,0.5c0.3,0.8,1.7,5,0.3,7.3c-0.2,1.4-0.4,1.7-0.8,1.9c-0.6,0.4-1.3,0.9-1.8,1.4
			c-1.2,1-2.6,2.2-4.5,2.4c-1.7,0.2-3.5,1.4-5.2,2.5c-0.7,0.5-1.4,0.9-2.1,1.3l-0.4,0.5c-1.2,0.5-2.3,1-3.4,1.6
			c-1,0.5-2.1,1.1-3.5,1.8c-0.3,0.3-0.5,0.6-0.7,1c-0.3,0.6-0.6,1.4-1.9,1.6c-0.2,0-0.4,0.1-0.6,0.1l-0.4,0.2
			c-0.4,1.6-1.3,1.7-2.1,1.6c-0.1,0-0.2,0-0.2,0c-0.3,0.1-0.7,0.6-1.1,1c-0.1,0.1-0.2,0.2-0.3,0.3c-1.2,1.3-2.8,1.4-4.3,1.5
			c-0.5,0-1.1,0.1-1.6,0.2c-0.4,0.1-0.7,0.1-1.1,0l-0.3,0l-0.8-1c0-0.2,0.1-0.3,0.1-0.5v-0.1h-0.4l-0.9-0.3c-1,1-2.1,2-3.3,3
			c-0.1,0-0.1,0.1-0.2,0.2c-0.3,0.3-0.7,0.8-1.5,0.7c-0.2,0-0.3-0.1-0.4-0.1c-0.2,0.2-0.4,0.4-0.6,0.5
			C339.5,78.6,339.2,78.8,338.9,79L338.9,79z M341.5,74c0.4,0.1,0.6,0.4,0.8,0.6l0.1,0.2V75l0.9-0.9c-0.5,0-1-0.1-1.4-0.3l-0.3-0.1
			c-0.4-0.2-0.7,0.1-1.4,1.3c0.2-0.2,0.3-0.4,0.5-0.6L341.5,74z M348.6,72.3l0.8,1.5c-0.1,0-0.1,0.1-0.1,0.2
			c-0.1,0.1-0.1,0.2-0.1,0.3c0.6-0.1,1.2-0.2,1.8-0.2c1.3-0.1,2.4-0.2,3.1-0.9c0.1-0.1,0.2-0.2,0.3-0.3c0.5-0.6,1.1-1.2,1.8-1.5
			c0.3-0.1,0.6-0.1,1-0.1h0.2c0.1-0.2,0.1-0.3,0.1-0.5c0-0.2,0.1-0.4,0.2-0.5l0.3-0.2c0.3-0.2,0.5-0.3,0.9-0.5l0.2-0.1
			c0.2-0.1,0.5-0.1,0.8-0.2c0.4-0.1,0.5-0.2,0.7-0.7c0.3-0.7,0.7-1.3,1.3-1.7l0.2-0.1c1.4-0.6,2.5-1.2,3.5-1.8
			c1.1-0.6,2-1.1,3.1-1.5c0.1-0.2,0.2-0.4,0.4-0.5c0.7-0.4,1.5-0.9,2.3-1.4c1.9-1.2,3.9-2.5,5.9-2.7c1.4-0.2,2.5-1.1,3.6-2
			c0.6-0.5,1.2-1,1.8-1.4c0-0.2,0.1-0.5,0.2-1l0.2-0.4c0.8-1.1,0.4-3.5-0.3-5.6c-0.5-0.2-1.1-0.4-1.7-0.5c-1.5-0.3-2.3-1.1-2.5-2.7
			c-0.1-0.5-0.2-0.9-0.4-0.9c-0.2-0.1-0.4-0.1-0.5,0l-0.7,0.9l-1.3,0.1c-0.2-0.2-0.3-0.4-0.5-0.5c-0.3-0.1-0.6-0.3-0.8-0.6l0.2-1.2
			c-0.8-0.2-1.6-0.4-2.4-0.6c-0.4-0.1-0.7-0.2-1.1-0.3c-0.1,0-0.2,0-0.4,0c-0.9-0.1-1.8-0.3-2.7-0.6c-0.5-0.2-0.9-0.3-1.6-0.4
			l-0.7-0.9v-0.1c-0.4,0.2-0.8,0.2-1.2,0.2l-0.3,0c-1.1-0.3-2.3-0.7-3.6-1.1c-0.1,0.1-0.2,0.2-0.2,0.3l-0.9,0.2l-0.2-0.1
			c-0.8-0.3-1.5-0.6-2.2-0.6c-0.2,0-0.5,0-0.7,0.1l-1.1-0.9c0.2-1.6,1.5-2,2.3-2.2c0.3,0,0.5-0.2,0.8-0.3c0.1-0.1,0.1-0.1,0.2-0.2
			l0,0l0.3-0.2c1-0.3,2-0.7,3-1.1c1.3-0.6,2.6-1,4-1.3c2.9-0.6,3.1-0.7,3.7-1c1.1-0.5,2.2-1,3.3-1.4c1.3-0.4,2.7-0.7,4.1-0.7l0.2,0
			h0.1c0.3,0,0.6-0.1,1-0.1c0.2,0,0.5,0,0.7-0.1c0.6,0,1.3-0.1,2-0.2l0.6,0.2c-0.1-0.1-0.3-0.1-0.4-0.1c0.1,0,0.2,0,0.2-0.1l0.2-0.1
			c0.3-0.1,0.6-0.2,0.9-0.2l0.1,0c0.2-0.1,0.4-0.1,0.7-0.2h0.3l0.1,0l1.1,0.3l0.4,0.6l5.6-2.1h0.1c0.5,0,0.8-0.1,1.1-0.1
			c0.5,0,0.9,0.2,1.6,0.7c0.3,0.2,0.6,0.3,0.9,0.5c2-0.1,3.1,0.8,3.5,1.5c0.8,1.2,0.8,2.9-0.2,4.9c-0.4,0.9-0.9,1.8-1.6,2.7
			c-0.8,1.1-1.3,2-1.4,3.8c0,0.3,0.1,0.5,0.2,0.8l0,0.1l-0.1,0.6c-0.5,1-1,2-1.5,3c0,0.2,0,0.4,0,0.6l-0.3,0.6
			c-1,0.7-1.2,1.7-1.5,2.8c-0.1,0.4-0.2,0.8-0.3,1.2c-0.1,0.4-0.2,0.8-0.3,1.2l-0.1,0.2c-0.4,0.9-0.8,1.8-1.1,2.7l-0.2,0.3
			c-0.2,0.2-0.4,0.3-0.6,0.5c0,0.3,0,0.7,0,1l-0.1,0.4c-0.4,0.9-0.6,1.9-0.6,2.8c0,0.9-0.1,1.8-0.3,2.7l-0.1,0.2
			c-0.3,0.6-0.8,1.1-1.3,1.5c0,0.1,0,0.1,0,0.2c0.1,0,0.2,0.1,0.3,0.1l0.5,0.9c-0.2,0.8-0.3,1.7-0.5,2.6l-0.4,0.6
			c-0.2,0.1-0.3,0.2-0.5,0.3c-1.3,0.9-1.3,1.9-1.2,3.5c0.1,0.1,0.3,0.2,0.4,0.3c0.3,0.2,0.5,0.4,0.8,0.7c0.1-0.2,0-0.5-0.1-0.7
			l0-0.1c-0.1-0.3-0.2-0.6-0.2-1l0.3-0.8c0.3-0.2,0.6-0.5,0.9-0.7l1,0.5c0,0,0-0.1,0-0.1c0-0.2,0.1-0.3,0.1-0.5l0.2-0.8l0.2-0.4
			c0.2-0.2,0.5-0.5,0.7-0.8c0-0.3,0-0.6,0-0.9l0.9-0.8c0.1,0,0.1,0,0.2,0c0.4-0.1,0.8,0,1,0.3l0.2,0.7c0,0.2-0.1,0.4-0.2,0.6
			c0,0.1,0.1,0.2,0.1,0.3c0,0,0,0,0,0c1.1-1.7,2.1-3.6,2.8-5.6c0.1-0.3,0.2-0.5,0.3-0.8c0.1-0.2,0.1-0.3,0.2-0.5l0.5,0l-0.2-0.2
			c0.2-0.2,0.3-0.3,0.5-0.5c0.3-0.2,0.5-0.5,0.8-0.8c1.1-1.5,1.1-1.9,1.2-3c0-0.5,0.1-1,0.2-1.8c0-0.2,0.1-0.4,0.1-0.6
			c0.2-1,0.3-2.1,0.9-3c0.2-0.4,0.5-0.7,0.9-0.9c0.7-0.6,0.7-0.7,0.4-1.1l0-0.8c0.4-0.9,0.9-1.9,1.3-2.9l0.1-0.2
			c1.9-2.6,2.3-3.9,3.2-6.4c0.2-0.4,0.3-0.9,0.5-1.3c1.3-3.8,3.1-7.3,4.9-10.7L410,27c0.4-0.7,1.3-1.5,2.2-1.6
			c7-0.5,11.2-1.5,16.5-3.9c1.6-1.2,3.1-2.2,4.6-3.2c-0.4-0.3-0.8-0.6-1.3-0.8c-0.2,0.2-0.4,0.3-0.7,0.4l-1.3-0.7c0-0.1,0-0.1,0-0.2
			c-0.1-0.4-0.1-1,0.5-1.3c0.2-0.1,0.3-0.2,0.5-0.2c0.2-0.2,0.4-0.5,0.7-0.7c-1.5-0.2-3-0.1-4.5,0.2c-4.3,0.9-8.6,1.5-12.9,1.8
			c-5.5,0.5-11.1,1.6-15.9,2.7c-1.4,0.3-2.8,0.4-4.2,0.2c-0.5,0-0.9,0-1.4,0c-0.5,0-1.1,0-1.6,0.2l-0.3,0.1l-1.8,0.1l-1.6,0.4
			l-0.3,0l-1.6-0.1l-0.9-0.1l-0.6,0.3l-1-0.1c0,0,0.1,0.1,0.1,0.1c-0.1,0-0.2-0.1-0.3-0.1c-1.4-0.2-2.8-0.2-4.2,0
			c-0.2,0-1,0.2-1.5,0.4c-0.5,0.2-1,0.3-1.5,0.4c-0.2,0-2.2,0.3-3.2,0.2c-1.1,0.3-2.2,0.7-3.3,1.2c-1.1,0.5-2.3,1-3.5,1.3
			c-1,0.3-2.1,0.7-3.1,1l-1.2,0.4c-0.4,0.5-1,1-1.6,1.2c-1.7,0.3-2.6,0.5-3.1,0.5l-0.4,0.1c-0.2,0.3-0.8,0.9-2.8,2.1l-0.3,0.2
			l-0.3,0.2l-0.8,0.2c-2.1,0.6-4.2,1.2-5.9,2.6c-0.3,0.6-0.7,1.4-1.1,2.1c-0.6,1-0.6,1.5-0.1,2.2c0.4,0.6,0.8,1.3,1.1,1.9
			c0.4,0.8,0.6,1.3,1.8,2.3c0.3,0.3,0.5,0.7,0.5,1.2c0.7,0.4,1.5,0.9,2.3,1.3l0.4,1c0,0.1-0.1,0.2-0.1,0.3c0.3,0.2,0.7,0.4,1,0.6
			c0.7,0.2,1.4,0.5,2,0.7c1.2,0.5,2.4,0.9,3.6,0.9c0.5,0,1,0.1,1.5,0.2c0.6,0.1,1.1,0.2,1.6,0.1l0.2-0.1v-0.2l0.3,0h0.1h0.1h0.2
			c0.5,0.1,0.9,0.2,1.3,0.4c0.2,0.1,0.4,0.2,0.6,0.2c0.4,0.1,0.8,0.2,1.1,0.5h0.1l0.4,0.2c1.9-0.2,3.1,0.4,4.4,0.9
			c0.9,0.4,1.7,0.7,2.6,0.9l0.3,1.6c-1.9,1.3-3.7,2.7-5.4,4.2c-2,1.8-4,3.5-6.6,4.8l-0.9-0.1c-0.1-0.1-0.3-0.2-0.5-0.3
			c-0.1,0.1-0.1,0.1-0.2,0.2c-0.1,0.2-0.2,0.4-0.3,0.6l0,0.1l-0.3,0.2l0.2,0.2c-0.1,0.3-0.3,0.6-0.6,0.8c-0.4,0.4-1.5,1.1-2.6,0.9
			c-0.4-0.1-0.7,0.1-1.3,0.7c-0.2,0.2-0.4,0.4-0.7,0.5c-0.2,0.2-0.4,0.4-0.6,0.5c-0.6,0.6-1.3,1.4-2.5,1.3c-0.1,0.2-0.3,0.4-0.4,0.6
			c-0.2,0.3-0.3,0.5-0.5,0.8c-0.1,0.1-0.2,0.2-0.2,0.4c-0.3,0.5-0.5,0.8-0.9,0.9l-0.7-0.1c-0.2-0.1-0.3-0.1-1.1,0.7
			c-0.5,0.6-1.4,1.4-2.5,1.3c0.2,0.6,0.2,1.3,0.2,2l0.7-0.7l0.9-0.2l1.2,0.4L348.6,72.3z M358.3,60.1L358.3,60.1
			C358.3,60.1,358.3,60.1,358.3,60.1z M361.3,47.5c-0.2,0.2-0.3,0.5-0.3,0.8c0,0.2,0.2,0.4,0.3,0.6L361.3,47.5z M374.7,43.7
			c0.1,0.1,0.2,0.2,0.3,0.3L374.7,43.7L374.7,43.7z"/>
		<path class="st8" d="M253.7,59.6l-4.7,0.8l0.4,2.5l4.7-0.8L253.7,59.6z"/>
		<path class="st8" d="M244.4,70.9l-4.7,0.8l0.4,2.5l4.7-0.8L244.4,70.9z"/>
		<path class="st8" d="M376.6,54.1l-4.7,0.8l0.4,2.5l4.7-0.8L376.6,54.1z"/>
		<path class="st8" d="M372,57.6l-4.7,0.8l0.4,2.5l4.7-0.8L372,57.6z"/>
		<path class="st8" d="M248.4,57.9l-2.8,0.5l0.4,2.4l2.8-0.5L248.4,57.9z"/>
		<path class="st8" d="M316,47.8l-16.4,2.7l0.4,2.4l16.4-2.7L316,47.8z"/>
		<path class="st8" d="M300,52.9l-4.7,0.8l0.4,2.5l4.7-0.8L300,52.9z"/>
		<path class="st8" d="M322.6,47.7l-2.8,0.4l0.4,2.4l2.8-0.4L322.6,47.7z"/>
		<path class="st3" d="M428.7,17.9l-7.7,1.3l0.4,2.2l7.7-1.3L428.7,17.9z"/>
		<path class="st3" d="M415.6,16l-4.5,0.7l0.4,2.2l4.5-0.7L415.6,16z"/>
		<path class="st3" d="M448.2,9.7l-8.6,1.4l0.4,2.2l8.6-1.4L448.2,9.7z"/>
		<path class="st3" d="M437.2,11.5l-2.3,0.4l0.4,2.2l2.3-0.4L437.2,11.5z"/>
		<path class="st3" d="M441.4,15.7l-2.3,0.4l0.4,2.2l2.3-0.4L441.4,15.7z"/>
		<path class="st9" d="M30,15l0.7-5.5L31,15l2.8,1l-2.9,0.8l-0.6,5.5L30,16.8l-2.8-1L30,15z"/>
		<path class="st9" d="M29.7,15.8l-8.5-7.3l9.5,6.4l1.9-1.6l-0.9,2.7l8.2,7.3l-9-6.5l-2.5,1.8L29.7,15.8z"/>
		<path class="st3" d="M305.6,30.9l-5.2,0.9l0.4,2.2l5.2-0.9L305.6,30.9z"/>
		<path class="st3" d="M314.5,24.2l-5.2,0.9l0.4,2.2l5.2-0.9L314.5,24.2z"/>
		<path class="st3" d="M268.1,32l-4.5,0.7l0.4,2.2l4.5-0.7L268.1,32z"/>
		<path class="st3" d="M298.7,27.6L290,29l0.4,2.2l8.7-1.4L298.7,27.6z"/>
		<path class="st3" d="M286.9,28.9l-2.3,0.4l0.4,2.2l2.3-0.4L286.9,28.9z"/>
		<path class="st3" d="M306.6,26.2l-2.3,0.4l0.4,2.2l2.3-0.4L306.6,26.2z"/>
		<path class="st8" d="M242.6,61.7l-5.2,0.9l0.4,2.2l5.2-0.9L242.6,61.7z"/>
		<path class="st3" d="M232.5,63.3l-5.2,0.9l0.4,2.2l5.2-0.9L232.5,63.3z"/>
		<path class="st3" d="M216.5,66.6l-8.7,1.4l0.4,2.2l8.7-1.4L216.5,66.6z"/>
		<path class="st8" d="M399.5,66.7l-2.3,0.4l0.4,2.2l2.3-0.4L399.5,66.7z"/>
		<path class="st3" d="M224.4,65.3l-2.3,0.4l0.4,2.2l2.3-0.4L224.4,65.3z"/>
		<path class="st3" d="M159,79l-5.2,0.9l0.4,2.2l5.2-0.9L159,79z"/>
		<path class="st4" d="M152.5,73.4l-8.6,1.4l0.4,2.2l8.6-1.4L152.5,73.4z"/>
		<path class="st4" d="M180.7,68.7l-5.3,0.9l0.4,2.2l5.3-0.9L180.7,68.7z"/>
		<path class="st4" d="M197.6,65.7l-5.3,0.9l0.4,2.2l5.3-0.9L197.6,65.7z"/>
		<path class="st4" d="M173,70l-14.9,2.4l0.4,2.2l14.9-2.4L173,70z"/>
		<path class="st4" d="M141.5,75.2l-2.3,0.4l0.4,2.2l2.3-0.4L141.5,75.2z"/>
		<path class="st4" d="M189,67.3l-2.3,0.4l0.4,2.2l2.3-0.4L189,67.3z"/>
		<path class="st3" d="M150.6,81l-2.3,0.4l0.4,2.2l2.3-0.4L150.6,81z"/>
		<path class="st10" d="M138,127.6v-3.9c4.2,0,7.4-4.1,5.8-8.5c-0.6-1.6-1.9-2.9-3.5-3.5c-4.4-1.6-8.5,1.6-8.5,5.8h-3.9
			c0-6.6,6.4-11.8,13.4-9.7c3,0.9,5.5,3.4,6.4,6.4C149.9,121.2,144.7,127.6,138,127.6z"/>
		<path class="st11" d="M138,123.7h-3.9v-3.9h3.9V123.7z"/>
		<path class="st11" d="M134.1,126.7h-3v-3h3V126.7z"/>
		<path class="st11" d="M131.1,123.7h-2.5v-2.5h2.5V123.7z"/>
		<path class="st10" d="M164,113.2c-1.2-0.8-2.6-1.2-4.3-1.2h-3.7v11.7h3.7c1.7,0,3.1-0.4,4.3-1.3c0.6-0.4,1.1-1.1,1.5-1.9
			s0.5-1.7,0.5-2.8c0-1.1-0.2-1.9-0.5-2.7C165.2,114.2,164.7,113.6,164,113.2z M158.2,113.9h1.2c1.3,0,2.3,0.2,3.2,0.8
			c0.9,0.5,1.3,1.6,1.3,3c0,1.5-0.4,2.6-1.3,3.2c-0.8,0.5-1.8,0.8-3.1,0.8h-1.2L158.2,113.9L158.2,113.9z"/>
		<path class="st10" d="M168.6,111.8c-0.4,0-0.6,0.1-0.9,0.4c-0.2,0.2-0.4,0.5-0.4,0.9c0,0.4,0.1,0.6,0.4,0.9
			c0.2,0.2,0.6,0.4,0.9,0.4c0.4,0,0.6-0.1,0.9-0.4c0.2-0.2,0.4-0.6,0.4-0.9c0-0.4-0.1-0.6-0.4-0.9
			C169.3,111.9,169,111.8,168.6,111.8z"/>
		<path class="st10" d="M169.6,115.4h-2.1v8.2h2.1V115.4z"/>
		<path class="st10" d="M177.2,116.1c-0.6-0.6-1.3-0.9-2.1-0.9c-1.1,0-2.1,0.4-2.8,1.2c-0.7,0.8-1.1,1.8-1.1,3c0,1.2,0.4,2.1,1.1,3
			c0.7,0.8,1.7,1.2,2.8,1.2c0.8,0,1.5-0.2,2-0.6v0.2c0,0.7-0.2,1.2-0.5,1.6c-0.4,0.4-0.9,0.6-1.5,0.6c-1,0-1.5-0.4-2.3-1.4l-1.4,1.3
			l0,0c0.3,0.4,0.8,0.8,1.4,1.3c0.6,0.4,1.4,0.6,2.3,0.6c1.2,0,2.2-0.4,3-1.1c0.7-0.8,1.1-1.7,1.1-3v-7.5h-2L177.2,116.1
			L177.2,116.1z M176.6,120.9c-0.4,0.4-0.8,0.6-1.4,0.6c-0.6,0-1.1-0.2-1.4-0.6c-0.4-0.4-0.5-0.9-0.5-1.6c0-0.7,0.2-1.2,0.5-1.6
			c0.4-0.4,0.8-0.6,1.4-0.6c0.6,0,1.1,0.2,1.4,0.6c0.4,0.4,0.5,1,0.5,1.6C177.2,120,177,120.5,176.6,120.9z"/>
		<path class="st10" d="M183,115.4H181v8.2h2.1V115.4z"/>
		<path class="st10" d="M182,111.8c-0.4,0-0.6,0.1-0.9,0.4c-0.2,0.2-0.4,0.5-0.4,0.9c0,0.4,0.1,0.6,0.4,0.9c0.2,0.2,0.6,0.4,0.9,0.4
			c0.4,0,0.6-0.1,0.9-0.4c0.2-0.2,0.4-0.6,0.4-0.9c0-0.4-0.1-0.6-0.4-0.9C182.7,111.9,182.4,111.8,182,111.8z"/>
		<path class="st10" d="M187.5,113.2h-2v2.2h-1.2v1.9h1.2v3.4c0,1.1,0.2,1.8,0.6,2.3c0.4,0.4,1.2,0.6,2.2,0.6c0.3,0,0.7,0,1,0h0.1
			v-1.9l-0.7,0c-0.5,0-0.8-0.1-1-0.2c-0.2-0.2-0.2-0.5-0.2-1.1v-3.1h1.9v-1.9h-1.9V113.2z"/>
		<path class="st10" d="M201.3,112h-2.1v11.7h2.1V112z"/>
		<path class="st10" d="M222.2,120.7c-0.4,0.4-0.8,0.8-1.1,1c-0.3,0.2-0.6,0.3-1.1,0.3c-0.6,0-1.1-0.2-1.5-0.7
			c-0.4-0.4-0.6-1.1-0.6-1.7c0-0.7,0.2-1.3,0.6-1.7c0.4-0.4,0.9-0.7,1.5-0.7c0.6,0,1.4,0.4,2,1.1l1.4-1.3c-0.9-1.2-2-1.7-3.4-1.7
			c-1.1,0-2.1,0.4-2.9,1.2c-0.8,0.8-1.2,1.9-1.2,3.1c0,1.2,0.4,2.3,1.2,3.1c0.8,0.8,1.8,1.2,2.9,1.2c1.5,0,2.7-0.6,3.5-1.8
			L222.2,120.7z"/>
		<path class="st10" d="M230.7,116.5c-0.3-0.4-0.7-0.7-1.2-1c-0.5-0.2-1.1-0.4-1.7-0.4c-1.2,0-2.1,0.4-2.8,1.3
			c-0.7,0.8-1.1,1.9-1.1,3.1c0,1.3,0.4,2.3,1.1,3.1c0.8,0.8,1.7,1.2,3,1.2c1.4,0,2.5-0.6,3.4-1.7l0,0l-1.3-1.3
			c-0.1,0.2-0.3,0.3-0.4,0.5c-0.2,0.2-0.4,0.3-0.6,0.4c-0.3,0.2-0.6,0.2-1.1,0.2c-0.6,0-1.1-0.2-1.4-0.5c-0.3-0.3-0.5-0.7-0.6-1.3
			h5.5v-0.8c0-0.5-0.1-1.1-0.2-1.5C231.1,117.4,230.9,116.9,230.7,116.5z M226.1,118.5c0.1-0.4,0.3-0.7,0.5-1
			c0.3-0.3,0.6-0.4,1.1-0.4c0.5,0,0.9,0.2,1.2,0.4c0.2,0.2,0.4,0.6,0.4,1H226.1z"/>
		<path class="st10" d="M238.6,116c-0.6-0.5-1.5-0.8-2.6-0.8c-0.7,0-1.3,0.2-1.9,0.4c-0.5,0.3-1.1,0.7-1.4,1.3l0,0l1.3,1.3
			c0.5-0.9,1.1-1.2,1.9-1.2c0.4,0,0.8,0.1,1.1,0.4c0.3,0.2,0.4,0.5,0.4,0.9v0.4c-0.5-0.2-1-0.2-1.5-0.2c-1,0-1.9,0.2-2.5,0.7
			c-0.6,0.5-0.9,1.2-0.9,2.1c0,0.8,0.3,1.4,0.8,1.9c0.5,0.4,1.2,0.7,2,0.7c0.8,0,1.5-0.3,2.2-0.8v0.7h2v-5.3
			C239.6,117.3,239.2,116.6,238.6,116z M234.9,120.5c0.2-0.2,0.6-0.2,1-0.2c0.5,0,1,0.1,1.6,0.3v0.8c-0.4,0.4-1.1,0.6-1.8,0.6
			c-0.4,0-0.6-0.1-0.8-0.2c-0.2-0.2-0.3-0.4-0.3-0.6C234.6,120.9,234.7,120.6,234.9,120.5z"/>
		<path class="st10" d="M247.5,116.2c-0.6-0.6-1.4-1-2.4-1c-0.8,0-1.5,0.2-2,0.7v-0.5h-2v8.2h2.1v-4.5c0-0.6,0.2-1.1,0.4-1.5
			c0.3-0.4,0.7-0.5,1.2-0.5c0.5,0,0.8,0.2,1.1,0.5c0.3,0.3,0.4,0.8,0.4,1.3v4.8h2.1v-4.8C248.4,117.7,248.1,116.8,247.5,116.2z"/>
		<path class="st10" d="M196.6,116c-0.6-0.5-1.5-0.8-2.6-0.8c-0.7,0-1.3,0.2-1.9,0.4c-0.5,0.3-1.1,0.7-1.4,1.3l0,0l1.3,1.3
			c0.5-0.9,1.1-1.2,1.9-1.2c0.4,0,0.8,0.1,1.1,0.4c0.3,0.2,0.4,0.5,0.4,0.9v0.4c-0.5-0.2-1-0.2-1.5-0.2c-1,0-1.9,0.2-2.5,0.7
			s-0.9,1.2-0.9,2.1c0,0.8,0.3,1.4,0.8,1.9c0.5,0.4,1.2,0.7,2,0.7c0.8,0,1.5-0.3,2.2-0.8v0.7h2v-5.3
			C197.5,117.3,197.2,116.6,196.6,116z M192.9,120.5c0.2-0.2,0.6-0.2,1-0.2c0.5,0,1,0.1,1.6,0.3v0.8c-0.4,0.4-1.1,0.6-1.8,0.6
			c-0.4,0-0.6-0.1-0.8-0.2c-0.2-0.2-0.3-0.4-0.3-0.6C192.6,120.9,192.7,120.6,192.9,120.5z"/>
		<path class="st10" d="M208.8,123.8c-3.3,0-6-2.7-6-6c0-3.3,2.7-6,6-6c3.3,0,6,2.7,6,6C214.8,121.1,212.1,123.8,208.8,123.8z
			 M208.8,113.9c-2.1,0-3.9,1.7-3.9,3.9c0,2.1,1.7,3.9,3.9,3.9c2.1,0,3.9-1.7,3.9-3.9C212.7,115.6,210.9,113.9,208.8,113.9z"/>
		<g class="st12">
			<g class="st12">
				<path class="st13" d="M38.2,128.9l-0.2-0.4v-0.2l0-0.3c0.1-3.1,0.4-4.9,0.6-5.3l0-0.1v-0.2l0.1-0.8v-0.2v-0.1c0-0.1,0-0.1,0-0.1
					c-0.1,0-0.1,0.2-0.3,0.4l-0.2,0.2l-0.2,0.2c-0.8,0.3-1,0.6-1.1,0.6c-0.2,0-0.2-0.1-0.2-0.3c0,0,0.3-0.5,0.7-0.8
					c0.1-0.2,0.3-0.4,0.4-0.4l0.1-0.2c0.3-0.4,0.4-0.7,0.6-0.8l0.2-0.1l0-0.1l0.1-0.2l0.2-0.4l0.3-0.4l0.4-0.7l0.5-1l0.1,0l0.2-0.4
					l0.3-0.6l0.1-0.1l0.1,0v-0.1l0.1-0.2l0.2-0.2l0.1-0.2c0-0.1,0.1-0.1,0.1-0.1c0.2,0,0.4,0.2,0.4,0.5c0,0.4-0.1,0.8-0.2,1.1
					l-0.1,0.4l-0.2,0.8l-0.3,0.8l-0.2,0.5l0,0.2l-0.1,0.4l-0.1,0.2v0.2l0,0.2l-0.1,0.1l0,0.3l-0.3,1l-0.2,0.6l-0.1,0.5l-0.2,0.8
					l-0.1,0.5l0,0.2l0,0l0,0.1v0.1c-0.2,1.1-0.3,1.8-0.3,2.1v0.1h0l0.1-0.2v-0.2l0,0l0-0.2v-0.2v-0.2l0-0.1l0.1-0.3l0.1-0.2v-0.2
					l0.2-0.2l0-0.1l0.1-0.2v-0.2l0.2-0.4l0.1-0.3l0-0.1v-0.1l0.2-0.8l0-0.2l0.2-0.8l0.3-0.8c0.2-0.4,0.2-0.6,0.3-0.7l0-0.1l0.1-0.3
					l0.1-0.1v-0.2c0.2-0.3,0.5-0.4,0.8-0.4c0.4,0,0.6,0.2,0.7,0.7l0.2,0.4l0.2,0.3l0.1,0.2l0.1,0.2l0.1,0.2c0.1,0.3,0.3,0.4,0.6,0.4
					c0.1,0,0.4-0.3,1.1-0.8h0.3c0,0.1,0,0.2,0,0.2c0,0.1-0.6,1.2-1.8,1.9l-0.4,0l-0.2,0l-0.2-0.1l-0.2-0.2l-0.2-0.2
					c-0.1-0.1-0.2-0.3-0.4-0.4l-0.2-0.3l-0.2-0.3l-0.2,0.1h-0.2l-0.1,0.2l-0.1,0.1l-0.1,0.2c-0.2,0.6-0.4,1.1-0.6,1.5l-0.1,0.1
					l0,0.4l-0.2,0.5l-0.3,1.1l-0.1,0.2l0,0.3l-0.2,0.7l-0.1,0.1v0.2l-0.2,0.5c0,0.1-0.1,0.2-0.1,0.3l-0.4,0.8c0,0.1-0.1,0.2-0.1,0.2
					c-0.1,0.2-0.2,0.2-0.4,0.2C38.4,129,38.3,129,38.2,128.9z"/>
				<path class="st13" d="M45.1,122.1c-0.3,0-0.4,0.3-0.6,0.4l-0.2,0.1c-0.4,0.2-0.4,0.3-0.5,0.3c0,0-0.1,0-0.1,0l0,0v0
					c0-0.2,0.2-0.4,0.5-0.9l0.1-0.1c0.3-0.1,0.3-0.4,0.5-0.6c0-0.2,0.1-0.2,0.2-0.3l0.4-0.4v-0.2l0.6-0.7l0.1,0l0-0.1l0-0.2l0.2-0.2
					l0,0v-0.2l-0.1-0.2v0c0-0.2,0.4-0.6,0.9-0.8l0.2-0.1l0.2,0h0.4v0h0.1l0.2,0.1l0.1,0.1l0.2,0.1l0.2,0c0.4,0.4,0.8,0.5,0.9,0.8
					l0.2,0.2l0,0.1v0.2l0.1,0.1l0,0.2c0,0.2,0.1,0.3,0.1,0.5c0,0.8-0.4,1.6-0.6,2.6h0.1l0.2-0.2h0.1l0.6-0.5h0.1l0.1-0.2l0.3-0.2
					l0.2-0.1l0.1-0.1l0.2-0.2l0.1-0.1c0.6-0.3,0.9-0.5,1.1-0.5c0.1,0,0.2,0,0.2,0.1c0,0-0.2,0.5-0.4,0.6l-0.2,0.2
					c-0.2,0.2-0.3,0.4-0.4,0.5l-0.1,0.1l-0.2,0v0l-0.1,0.1l-0.2,0.1l-0.2,0.2l-0.1,0.2l-0.2,0l-0.1,0.1c-0.2,0.2-0.4,0.3-0.6,0.4
					l-0.2,0.2c-0.2,0-0.2,0-0.3,0.2l-0.3,0.2h-0.2c-0.1,0-0.2,0.1-0.2,0.2l-0.6,0l-0.1,0h-0.1c-0.2,0-0.2-0.1-0.2-0.3
					c0-0.2,0.1-0.4,0.2-0.7l0-0.2l0.1-0.2v-0.1l0.3-1l0-0.1v-0.2c0-0.3,0-0.5,0-0.7c0-0.4-0.1-0.6-0.4-0.8l0-0.2
					c-0.2,0-0.4-0.2-0.6-0.3l-0.2,0l-0.1,0.2l-0.4,0.2l-0.2,0.2l-0.1,0.1l-0.2,0.2l-0.2,0.3l-0.4,0.4l-0.1,0.1l-0.2,0.1l0,0.1
					l-0.2,0.3c0,0.1-0.1,0.2-0.3,0.2L45.1,122.1z"/>
				<path class="st13" d="M52.2,121.9l-0.2,0.2l-0.1,0.1l-0.2,0.2c-0.1,0.1-0.2,0.2-0.4,0.2l-0.1,0.1l-0.2,0.1
					c-0.1,0.2-0.2,0.2-0.4,0.2c-0.1,0-0.1,0-0.2-0.2c0-0.2,0.1-0.2,0.2-0.3v-0.2c0.2-0.2,0.3-0.3,0.4-0.4l0.1-0.2l0.1,0
					c0.1-0.2,0.2-0.3,0.4-0.4l0-0.1l0.2-0.2l0.2-0.2c0,0,0.1-0.1,0.1-0.2v-0.1l0.1-0.2l0-0.1l0-0.2c0.1-0.4,0.2-0.7,0.3-0.9l0.1-0.1
					l0-0.1c0.3-0.6,0.8-1.1,1.3-1.5h0.1l0.1-0.1h0.1l0-0.1c0.3-0.2,0.6-0.4,0.9-0.4c0.1,0,0.2,0,0.2,0l0.1,0l0.4,0.1l0.1,0.2h0
					c0.1,0.2,0.1,0.4,0.1,0.4c0,0,0,0.1,0,0.2l0,0.1v0.2l-0.1,0.2v0.3l0,0.2c-0.1,0.2-0.2,0.4-0.4,0.6l0,0.1
					c-0.3,0.4-0.8,0.8-1.3,1.2l-0.2,0l0,0.1l-0.3,0.2l-0.1,0.2c-0.1,0-0.1,0-0.1,0.1c0,0.1,0,0.2,0.1,0.4l0.1,0.1l0,0.2
					c0.3,0.2,0.6,0.3,0.8,0.3c0.2,0,0.4-0.1,0.6-0.2l0.1,0l0.3-0.2h0.2l0-0.2c0,0,0.2-0.2,0.6-0.5l0.2-0.1l0.1-0.2
					c0.2-0.1,0.3-0.2,0.5-0.2c0.1-0.2,0.2-0.2,0.4-0.3l0.2-0.2c0.1,0,0.2,0,0.2,0c0.1,0,0.2,0,0.2,0.2c0,0.1,0,0.2-0.1,0.2l0,0.1
					c-0.1,0.2-0.3,0.4-0.5,0.6v0c0,0.2,0,0.2-0.2,0.2c-0.2,0.3-0.4,0.5-0.7,0.7l-0.2,0.1l-0.1,0c-0.1,0.1-0.2,0.2-0.4,0.3l-0.1,0.1
					l-0.2,0.2c-0.4,0.4-1,0.6-1.3,0.6h-0.1l-0.2,0l-0.1,0H54c-0.4,0-0.7-0.1-0.9-0.3H53l-0.2-0.2l-0.1-0.2l-0.1-0.1
					c-0.1-0.2-0.2-0.3-0.2-0.5l-0.1-0.4L52.2,121.9z M54.8,119.2c0-0.2,0.2-0.2,0.2-0.5c0-0.1,0-0.2-0.1-0.2h0l-0.1,0.1l-0.4,0.3
					l-0.3,0.3l-0.3,0.4c-0.1,0.2-0.1,0.3-0.1,0.4c0,0,0,0,0,0c0,0,0.1,0,0.1,0c0.1,0,0.1,0,0.2,0c0,0,0.1,0,0.1-0.1l0.1-0.2l0.2-0.2
					l0.4-0.3L54.8,119.2z"/>
				<path class="st13" d="M57,122.1L57,122.1c-0.2,0.2-0.3,0.2-0.5,0.3l-0.2,0.2l-0.2,0.1c-0.1,0.1-0.2,0.1-0.2,0.2l-0.2,0.1
					c-0.1,0-0.2-0.1-0.2-0.2c0,0,0-0.1,0-0.2l0.2-0.2v-0.2c0.2-0.2,0.2-0.3,0.4-0.4l0.1-0.2l0.2,0c0.1-0.2,0.2-0.3,0.4-0.4L57,121
					l0.7-0.6l0.2-0.2L58,120l0.4-0.4l0.1,0l0.1-0.2l0.8-0.8l0.1,0l0-0.1l0.7-0.8c0.3-0.3,0.4-0.5,0.8-0.5c0.2,0,0.4,0.1,0.6,0.2
					l0.1,0.1l0.2,0.2c0,0.1,0.1,0.2,0.1,0.3c0,0,0,0.1,0,0.2v0.1c0,0.2,0,0.4-0.1,0.7l0,0.2l-0.1,0.4c0,0.4-0.2,0.8-0.3,1.3
					l-0.1,0.4l-0.2,0.5l-0.2,0.4c0,0.2-0.1,0.3-0.2,0.4v0.2l0.8-0.5l0.2-0.2c0.3-0.2,0.4-0.3,0.6-0.5l0.2-0.2
					c0.1-0.2,0.3-0.2,0.6-0.4l0.2-0.2c0.2,0,0.2-0.1,0.3-0.2l0.2-0.1h0c0.1,0,0.2,0.1,0.2,0.2c0,0,0,0.1,0,0.2v0.2
					c-0.1,0.1-0.3,0.4-0.5,0.6c0,0.2-0.1,0.2-0.3,0.2c-0.2,0.4-0.4,0.5-0.6,0.7l-0.1,0.1l-0.2,0.2l-0.2,0.1l-0.2,0.3
					c-0.2,0.2-0.5,0.4-0.8,0.5l-0.2,0.3l-0.1,0.2l-0.2,0.1c-0.1,0.2-0.2,0.3-0.4,0.3h-0.1l-0.3,0.4l-0.4,0.2l-0.2,0.1h-0.2
					c-0.2,0-0.2-0.1-0.3-0.2v-0.1l-0.1-0.1c-0.2-0.4-0.2-0.8-0.3-1.3l0-0.2l-0.2-0.4c0.2-0.4,0.5-0.6,0.7-0.6c0.2,0,0.2,0.2,0.3,0.4
					h0.1c0.1-0.2,0.1-0.4,0.2-0.6v-0.3c0.1-0.3,0.1-0.6,0.1-0.9v-0.2l0-0.4l-0.1-0.2l-0.2,0l-0.2,0.2l-0.2,0.1
					c-0.4,0.3-0.7,0.7-1.2,1.1l-0.2,0.2l-0.2,0.1v0.1C57.6,121.7,57.4,121.9,57,122.1L57,122.1z"/>
				<path class="st13" d="M63.1,121.9l-0.2,0.2l-0.1,0.1l-0.2,0.2c-0.1,0.1-0.2,0.2-0.4,0.2l-0.1,0.1l-0.2,0.1
					c-0.1,0.2-0.2,0.2-0.4,0.2c-0.1,0-0.1,0-0.2-0.2c0-0.2,0.1-0.2,0.2-0.3v-0.2c0.2-0.2,0.3-0.3,0.4-0.4l0.1-0.2l0.1,0
					c0.1-0.2,0.2-0.3,0.4-0.4l0-0.1l0.2-0.2l0.2-0.2c0,0,0.1-0.1,0.1-0.2v-0.1l0.1-0.2l0-0.1l0-0.2c0.1-0.4,0.2-0.7,0.3-0.9l0.1-0.1
					l0,0c0.3-0.6,0.8-1.1,1.3-1.5h0.1l0.1-0.1h0.1l0-0.1c0.3-0.2,0.6-0.4,0.9-0.4c0.1,0,0.2,0,0.2,0l0.1,0l0.4,0.1l0.1,0.2h0
					c0.1,0.2,0.1,0.4,0.1,0.4c0,0,0,0.1,0,0.2l0,0.1v0.2l-0.1,0.2l-0.1,0.2l0,0.2c-0.1,0.2-0.2,0.4-0.4,0.6l0,0.1
					c-0.3,0.4-0.8,0.8-1.3,1.2l-0.2,0l0,0.1l-0.3,0.2l-0.1,0.2c0,0-0.1,0.1-0.1,0.1c0,0.1,0,0.2,0.1,0.4l0.1,0.1l0,0.2
					c0.3,0.2,0.6,0.3,0.8,0.3c0.2,0,0.4-0.1,0.6-0.2l0.1,0l0.3-0.2H67l0-0.2c0,0,0.2-0.2,0.6-0.5l0.2-0.1l0.1-0.2
					c0.2-0.1,0.3-0.2,0.5-0.2c0.1-0.2,0.2-0.2,0.4-0.3l0.2-0.2c0.1,0,0.2,0,0.2,0c0.1,0,0.2,0,0.2,0.2c0,0.1,0,0.2-0.1,0.2l0,0.1
					c-0.1,0.2-0.3,0.4-0.5,0.6v0c0,0.2,0,0.2-0.2,0.2c-0.2,0.3-0.4,0.5-0.7,0.7l-0.2,0.1l-0.1,0c-0.1,0.1-0.2,0.2-0.4,0.3l-0.1,0.1
					l-0.2,0.2c-0.4,0.4-1,0.6-1.3,0.6h-0.1l-0.2,0l-0.1,0H65c-0.4,0-0.7-0.1-0.9-0.3H64l-0.2-0.2l-0.1-0.2l-0.1-0.1
					c-0.1-0.2-0.2-0.3-0.2-0.5l-0.1-0.4L63.1,121.9z M65.7,119.2c0-0.2,0.2-0.2,0.2-0.5c0-0.1,0-0.2-0.1-0.2h0l-0.1,0.1l-0.4,0.3
					l-0.3,0.3l-0.3,0.4c-0.1,0.2-0.1,0.3-0.1,0.4c0,0,0,0,0,0c0,0,0.1,0,0.1,0c0.1,0,0.1,0,0.2,0c0,0,0.1,0,0.1-0.1l0.1-0.2l0.2-0.2
					l0.4-0.3L65.7,119.2z"/>
				<path class="st13" d="M68.4,120.5c1.4-1.6,2.2-2.5,2.5-2.7l0.2,0l0.2-0.1l0.2-0.1l0.1,0h0.1c0.4,0.2,0.5,0.4,0.5,0.7
					c0,0.1,0,0.3-0.1,0.4l0,0.3c0,0.2-0.1,0.4-0.2,0.6l-0.1,0.2v0.2c-0.2,0.4-0.4,0.9-0.5,1.3l-0.1,0.1c0,0,0,0.1,0,0.2
					c0,0.2-0.2,0.2-0.2,0.4v0.1l0.4-0.4c0.2-0.2,0.4-0.4,0.6-0.7l0.1,0l0-0.1v-0.1c0-0.1,0.1-0.2,0.2-0.3l0.3-0.2l0.1-0.2
					c0.6-0.6,1.1-0.9,1.6-0.9c0.3,0,0.6,0.1,0.6,0.3l0.2,0.2c0.1,0.3,0.3,0.6,0.4,0.9l0,0.2c0.2,0.2,0.2,0.6,0.6,0.6
					c0.1,0,0.2,0,0.2,0l0.1,0l0.1-0.1l0.2-0.2l0.2-0.2c0.6-0.2,0.9-0.7,1.3-0.7c0.1,0,0.2,0,0.2,0.2c0,0,0,0.1-0.1,0.3l-0.1,0.2
					c-0.3,0.4-0.7,0.8-1.1,1.2l-0.1,0.1l-0.2,0.1c0,0.2-0.2,0.2-0.4,0.4l-0.1,0.1l-0.4,0.2c-0.1,0-0.2,0-0.3,0
					c-0.4,0-0.8-0.4-1.1-1.1v-0.2c-0.2-0.2-0.4-0.4-0.6-0.6c-0.1,0-0.2-0.1-0.2-0.1c-0.2,0-0.4,0.2-0.7,0.5l-0.2,0l-0.2,0.2
					c-0.1,0.2-0.3,0.3-0.4,0.3l-0.2,0.4c-0.6,0.6-1,1.1-1.3,1.3c-0.3,0.4-0.5,0.5-1,0.5c-0.2,0-0.3,0-0.4-0.3v-0.2l0-0.1l0-0.2
					c0.3-1.1,0.5-1.7,0.5-1.9c0,0,0-0.1,0.1-0.2l0.1-0.2c0-0.1,0-0.1,0-0.1c0-0.2,0.2-0.4,0.2-0.8c0,0-0.1-0.1-0.2-0.1
					c-0.5,0-0.5,0.4-0.8,0.6l-0.2,0.3l-0.2,0.2l-0.1,0l-0.1,0l-0.1,0.1l-0.1,0.1c-0.1,0-0.2,0.1-0.2,0.1l-0.2,0.1
					c-0.8,0.7-1.4,1.1-1.5,1.1c-0.1,0-0.2-0.1-0.2-0.2c0-0.1,0.1-0.2,0.2-0.3v-0.2c0.6-0.7,1-1.1,1.1-1.1v0c0,0,0,0,0,0
					c0,0,0.1,0,0.1-0.2l0.1-0.1l0.2-0.2L68.4,120.5z"/>
				<path class="st13" d="M82.1,115c0.1,0,0.2,0,0.3,0.1c0.1,0,0.1,0,0.1,0.1v0c0,0.5,0.1,0.8,0.1,0.8c0,0.4-0.1,0.4-0.5,0.4
					c0,0-0.2,0-0.5,0c-0.1,0.4-0.2,0.6-0.3,0.7c0,0.1,0,0.1,0,0.2c0,0.1,0,0.1-0.1,0.2c-0.4,1.6-0.7,2.9-0.8,4v0c0,0,0,0.1,0,0.2
					c0,0,0,0,0,0.1c-0.1,0.5-0.1,0.8-0.1,1c0,0.1,0.1,0.2,0.2,0.2c0.1,0,0.2-0.1,0.4-0.2c0,0,0.1,0,0.2,0h0c0,0,0-0.1,0-0.2
					c0,0,0,0,0-0.1c0.3-0.2,0.6-0.4,0.8-0.6c0-0.1,0-0.2,0.2-0.2c0.2-0.1,0.4-0.3,0.5-0.4h0.1l0-0.1c0.2-0.1,0.3-0.2,0.5-0.2
					c0.1-0.1,0.2-0.2,0.4-0.3l0.1,0c0.1-0.1,0.2-0.2,0.4-0.2c0.1,0,0.2,0,0.2,0.1s0,0.2-0.1,0.2l0,0.1c-0.2,0.2-0.3,0.4-0.6,0.6
					c0,0.2,0,0.2-0.2,0.2l-0.1,0.2l-0.3,0.3c-0.2,0.3-0.4,0.4-0.5,0.5c-0.1,0-0.1,0-0.1,0.1c-0.3,0.4-0.5,0.6-0.7,0.8
					c-0.1,0-0.2,0.1-0.2,0.2c-0.3,0.4-0.7,0.7-1.1,1h0c-0.1,0.1-0.2,0.1-0.3,0.1c0,0-0.1,0-0.1,0l0,0c0,0,0,0-0.1,0
					c-0.1,0-0.1,0-0.2-0.1c-0.5-0.1-0.6-0.4-0.6-1.1c0,0,0-0.1,0-0.2v-0.1c0-0.1,0-0.1,0-0.2v-0.3c0-0.2,0-0.4,0.1-0.6l0-0.1
					c0,0,0-0.1,0-0.2v-0.1c0.1-0.6,0.2-1.2,0.4-1.5c0.1-0.1,0.2-0.2,0.2-0.2c0,0,0-0.1,0-0.1l0-0.3l-0.1,0.2
					c-0.2,0.1-0.2,0.2-0.4,0.5c-0.1,0.2-0.3,0.2-0.4,0.4l-0.2,0.2c-0.1,0.2-0.1,0.2-0.2,0.2c-0.2,0-0.2,0-0.2,0.2l0,0.2l-0.2,0.2
					c-0.1,0.1-0.2,0.2-0.2,0.3l-0.1,0.1c-0.2,0.1-0.3,0.2-0.4,0.3c-0.1,0-0.2,0.1-0.3,0.2c-0.2,0.1-0.3,0.2-0.4,0.2l-0.2,0.1
					c-0.1,0-0.2,0-0.2,0c-0.2,0-0.2,0-0.2-0.2v0c0-0.1,0.1-0.2,0.2-0.2v-0.2c0.2-0.2,0.3-0.3,0.4-0.4v-0.1l0.3-0.2
					c0.1-0.2,0.2-0.2,0.4-0.4l0.1-0.2c0.1,0,0.2-0.1,0.2-0.2c0,0,0.2,0,0.2,0v-0.2c0.2-0.3,0.5-0.6,0.7-0.8c0.1-0.2,0.3-0.5,0.6-0.9
					c0.1,0,0.2,0,0.2-0.1c0,0,0,0,0-0.1c0.2-0.2,0.3-0.4,0.4-0.7c0.2,0,0.2-0.5,0.7-1.2c0.1-0.1,0.2-0.2,0.2-0.4l-0.2,0
					c-0.2,0.1-0.3,0.1-0.4,0.1c-0.1,0-0.3,0-0.4,0c0,0,0,0-0.1,0c0,0-0.1,0-0.1,0c0,0-0.1,0-0.2,0h-1c-0.1,0-0.1-0.1-0.2-0.2
					c0,0.1-0.1,0.1-0.2,0.2c0,0,0,0-0.1,0c-0.1,0-0.2-0.1-0.4-0.2c-0.2,0-0.2-0.1-0.2-0.3c0-0.2,0-0.4,0-0.7c0-0.1,0-0.2,0-0.2h0.1
					c0,0,0,0,0.1-0.1c0.2,0,0.4-0.1,0.6-0.1c0.2,0,0.4,0,0.6,0c0.2,0,0.5,0,0.7,0c0,0,0.2,0,0.4,0c0,0,0,0,0.1,0c0,0,0.1,0,0.2,0
					c0.2,0,0.3,0,0.4,0s0.2,0,0.4,0l0.1,0.1c0.2,0,0.4,0,0.4-0.1c0.2-0.5,0.4-0.8,0.4-1c0.1-0.2,0.2-0.3,0.3-0.3v0
					c0-0.2,0.3-0.3,0.5-0.3c0.2,0,0.2,0,0.3,0.2c0,0.1,0.1,0.2,0.1,0.2C82.3,114.1,82.2,114.5,82.1,115z"/>
				<path class="st13" d="M83,121.9l-0.2,0.2l-0.1,0.1l-0.2,0.2c-0.1,0.1-0.2,0.2-0.4,0.2l-0.1,0.1l-0.2,0.1
					c-0.1,0.2-0.2,0.2-0.4,0.2c-0.1,0-0.1,0-0.2-0.2c0-0.2,0.1-0.2,0.2-0.3v-0.2c0.2-0.2,0.3-0.3,0.4-0.4l0.1-0.2l0.1,0
					c0.1-0.2,0.2-0.3,0.4-0.4l0-0.1l0.2-0.2l0.2-0.2c0,0,0.1-0.1,0.1-0.2v-0.1l0.1-0.2l0-0.1l0-0.2c0.1-0.4,0.2-0.7,0.3-0.9l0.1-0.1
					l0-0.1c0.3-0.6,0.8-1.1,1.3-1.5h0.1l0.1-0.1h0.1l0-0.1c0.3-0.2,0.6-0.4,0.9-0.4c0.1,0,0.2,0,0.2,0l0.1,0l0.4,0.1l0.1,0.2h0
					c0.1,0.2,0.1,0.4,0.1,0.4c0,0,0,0.1,0,0.2l0,0.1v0.2l-0.1,0.2l-0.1,0.2l0,0.2c-0.1,0.2-0.2,0.4-0.4,0.6l0,0.1
					c-0.3,0.4-0.8,0.8-1.3,1.2l-0.2,0l0,0.1l-0.3,0.2l-0.1,0.2c0,0-0.1,0.1-0.1,0.1c0,0.1,0,0.2,0.1,0.4l0.1,0.1l0,0.2
					c0.3,0.2,0.6,0.3,0.8,0.3c0.2,0,0.4-0.1,0.6-0.2l0.1,0l0.3-0.2h0.2l0-0.2c0,0,0.2-0.2,0.6-0.5l0.2-0.1l0.1-0.2
					c0.2-0.1,0.3-0.2,0.5-0.2c0.1-0.2,0.2-0.2,0.4-0.3l0.2-0.2c0.1,0,0.2,0,0.2,0c0.1,0,0.2,0,0.2,0.2c0,0.1,0,0.2-0.1,0.2l0,0.1
					c-0.1,0.2-0.3,0.4-0.5,0.6v0c0,0.2,0,0.2-0.2,0.2c-0.2,0.3-0.4,0.5-0.7,0.7l-0.2,0.1l-0.1,0c-0.1,0.1-0.2,0.2-0.4,0.3l-0.1,0.1
					l-0.2,0.2c-0.4,0.4-1,0.6-1.3,0.6h-0.1l-0.2,0l-0.1,0h-0.2c-0.4,0-0.7-0.1-0.9-0.3h-0.1l-0.2-0.2l-0.1-0.2l-0.1-0.1
					c-0.1-0.2-0.2-0.3-0.2-0.5l-0.1-0.4L83,121.9z M85.6,119.2c0-0.2,0.2-0.2,0.2-0.5c0-0.1,0-0.2-0.1-0.2h0l-0.2,0.1l-0.4,0.3
					l-0.3,0.3l-0.3,0.4c-0.1,0.2-0.1,0.3-0.1,0.4c0,0,0,0,0,0c0,0,0.1,0,0.1,0c0.1,0,0.1,0,0.2,0c0,0,0.1,0,0.1-0.1l0.1-0.2l0.2-0.2
					l0.4-0.3L85.6,119.2z"/>
				<path class="st13" d="M95.9,121.3l0.2-0.1c0.1-0.2,0.2-0.2,0.3-0.2l0.4-0.2l0.2-0.2c0.1,0,0.2,0,0.2-0.1
					c0.1-0.1,0.2-0.2,0.3-0.2c0,0,0.1,0,0.1,0c0,0,0.1,0.1,0.1,0.2c0,0,0,0.2-0.1,0.3l-0.2,0.3l-0.3,0.3c0,0.2-0.1,0.2-0.3,0.2
					c-0.1,0.2-0.2,0.4-0.4,0.4l-0.1,0.1l-0.2,0.1c-0.1,0.1-0.2,0.2-0.3,0.2c-0.1,0.1-0.2,0.1-0.3,0.2c-0.2,0-0.3,0-0.4,0.1l-0.1,0
					h-0.2c-0.1,0-0.2,0-0.2,0c-0.2,0-0.6-0.1-0.9-0.3l0-0.1c-0.1-0.1-0.2-0.2-0.3-0.3l0-0.1l0,0c-0.1-0.1-0.2-0.2-0.2-0.4
					c0,0,0-0.1,0-0.1c0-0.1,0-0.1-0.1-0.2c0-0.2,0-0.3-0.1-0.4l0-0.2l-0.1-0.2c-0.1,0.1-0.2,0.2-0.3,0.4c-0.1,0.1-0.2,0.2-0.2,0.3
					c-0.2,0.1-0.2,0.2-0.2,0.3l0,0.1c-0.1,0.1-0.2,0.3-0.4,0.4l-0.2,0.1l-0.1,0.2c-0.2,0.2-0.4,0.5-0.8,0.9l-0.3,0.2l-0.2,0.2
					c-0.2,0.1-0.3,0.2-0.4,0.4l-0.2,0.1h-0.1c0,0-0.1,0-0.2,0h-0.2c-0.1,0-0.2,0-0.2,0c-0.1,0-0.3-0.1-0.4-0.3v-0.1l0,0v-0.1l0-0.1
					c0-0.4,0.1-0.9,0.3-1.4l0.1-0.3c-0.2,0.2-0.4,0.3-0.6,0.4l-0.2,0.1c-0.1,0.1-0.2,0.2-0.4,0.2c-0.4,0.3-0.7,0.5-0.8,0.5
					c-0.1,0-0.1,0-0.2-0.1l0-0.2c0-0.1,0.1-0.2,0.2-0.2v-0.2c0-0.1,0.2-0.2,0.3-0.2c0.1-0.2,0.2-0.3,0.4-0.4
					c0.1-0.2,0.2-0.3,0.4-0.4l0.1-0.2l0.2,0c0-0.1,0.1-0.2,0.2-0.2c0,0,0,0,0.1,0c0,0,0.1,0,0.1-0.2c0.2-0.2,0.4-0.4,0.6-0.6
					c0.2-0.1,0.4-0.1,0.4-0.3v0c0,0,0.3-0.2,0.7-0.7l0.1-0.1l0.3-0.2l0.3-0.3c0.2-0.2,0.6-0.6,1.2-1.1c0.2-0.1,0.4-0.3,0.8-0.6
					c0.2-0.1,0.3-0.1,0.4-0.1c0.1-0.3,0.2-0.6,0.2-0.8l0.1-0.1c0.2-0.8,0.5-1.5,0.8-2.2l0.1-0.1v-0.1c0-0.2,0.1-0.3,0.2-0.4
					c0.1-0.1,0.2-0.2,0.2-0.3l0.2-0.2l0-0.2c0.1-0.2,0.2-0.4,0.5-0.7l0.2-0.2l0.2-0.1l0.1,0l0.1-0.1c0.1,0,0.2,0,0.3,0.1l0.1,0.2
					l0,0.1l0.1,0.1v0.1c0,0.2-0.1,0.4-0.2,0.7v0.2c0,0.3-0.1,0.5-0.2,0.7v0.2c0,0.2-0.1,0.5-0.2,0.7l-0.1,0.1v0.1l-0.2,0.2v0.1
					c-0.1,0.1-0.2,0.2-0.2,0.3c0,0,0,0.1,0,0.2c0,0.3-0.2,0.6-0.4,0.9c-0.1,0-0.1,0.1-0.1,0.2c0,0,0,0,0,0.1c0,0.2-0.2,0.4-0.2,0.6
					c-0.1,0-0.2,0-0.2,0.1c0,0,0,0.1,0,0.2c0,0.2-0.2,0.5-0.4,0.9l-0.1,0.2c-0.1,0.2-0.1,0.4-0.1,0.6v0.1l0,0.2l0,0.2
					c0,0.4,0,0.9,0.2,1.3c0,0,0,0.1,0,0.1c0,0,0,0.1,0.1,0.1l0.1,0.3c0.1,0.1,0.2,0.2,0.2,0.3c0.2,0.1,0.3,0.2,0.4,0.2
					c0.1,0,0.2,0,0.3,0c0,0,0.1,0,0.2,0L95.9,121.3z M90.9,121.3c0.4-0.4,0.6-0.7,0.8-1l0.1,0l0.1-0.2c0.4-0.5,0.6-1,0.8-1.3
					c0-0.4,0-0.6,0.1-1h-0.2l-0.1,0.2l-0.1,0.2c-0.2,0.2-0.3,0.3-0.4,0.4l-0.1,0.1l-0.2,0.1v0.1c-0.1,0.2-0.4,0.5-0.8,1
					c-0.1,0.1-0.2,0.2-0.2,0.4c-0.1,0.1-0.2,0.2-0.3,0.4c-0.1,0.1-0.2,0.2-0.2,0.4c0,0.2-0.1,0.3-0.2,0.4c0,0.1-0.1,0.2-0.2,0.4
					c0,0.2-0.2,0.3-0.2,0.5c0.1,0,0.1,0,0.2,0c0.1,0,0.2-0.1,0.3-0.2l0.2-0.1c0.2-0.2,0.3-0.4,0.4-0.4L90.9,121.3z"/>
				<path class="st13" d="M101.2,121.9l-0.2,0.2c0,0-0.1,0.1-0.1,0.1h0c0,0-0.6,0.2-0.6,0.4c-0.2,0-0.3,0-0.3,0c0,0-0.1-0.1-0.1-0.2
					c0-0.1,0.2-0.1,0.2-0.3c0,0,0-0.1,0-0.1l0.2-0.2c0,0,0.2-0.4,0.8-1l0.2-0.1c0.2-0.3,0.5-0.4,0.6-0.8v-0.2
					c0.2-0.6,0.1-1.1,0.3-1.3v-0.2c0.1-0.4,0.2-0.9,0.4-1.5l0.2-0.5v-0.2c0.4-0.8,0.5-1.9,1.1-2.9l0-0.2c0.3-0.6,0.5-1.1,0.9-1.5
					l0.1-0.2c0-0.1,0.2-0.2,0.4-0.3l0.2,0c0.3-0.2,0.6-0.4,1.1-0.4c0.3,0,0.4,0.2,0.4,0.4c0,0,0,0.1,0,0.2c0,0.1,0.1,0.2,0.1,0.2
					c0,0.1,0,0.2-0.1,0.2v0.2c-0.1,0.5-0.3,1-0.3,1.4l-0.1,0.1c0,0-0.2,0.6-0.7,1.7l-0.3,0.7c-0.1,0.2-0.1,0.3-0.2,0.3
					c0,0,0,0-0.1,0c0,0,0,0,0,0.1c0,0.1,0,0.2,0,0.2c-0.1,0.1-0.2,0.2-0.2,0.2c-0.1,0.3-0.1,0.5-0.2,0.5c0,0-0.1,0-0.2,0l0,0.2
					c0,0,0,0.1,0,0.1c0,0.2-0.1,0.3-0.2,0.5l0,0.2c-0.5,0.8-0.8,1.3-0.8,1.4l-0.2,0.2c0,0.2-0.1,0.4-0.2,0.5c0,0.2,0,0.4,0,0.8v0.6
					c0,1,0.3,1.5,0.6,1.5c0.2,0,0.4-0.1,0.7-0.3c0.6-0.8,1.1-1.1,1.1-1.2l-0.2-0.2c0,0,0,0.1-0.2,0.3l-0.2,0.2l0,0.1
					c-0.1,0.1-0.1,0.2-0.2,0.2c-0.1,0-0.4-0.2-0.4-0.4c0-0.2,0-0.3,0.2-0.4c0-0.3,0.3-0.6,0.6-1l0.2-0.2c0.3-0.4,0.5-0.6,0.8-0.6
					c0,0,0.2,0,0.3,0h0.3c0,0,0.1,0,0.1,0c0.2,0,0.2,0.1,0.2,0.3c0,0,0,0.2,0,0.3l-0.1,0.4c0,0.2-0.1,0.4-0.2,0.6l-0.2,0.3
					c-0.4,0.6-0.6,1.2-1.1,1.7l-0.2,0.2c-0.2,0.3-0.5,0.6-0.9,0.9l-0.2,0l-0.1,0.1c-0.3,0.2-0.6,0.3-0.9,0.3c-0.9,0-1.3-1-1.3-2.9
					v-0.1C101.4,121.7,101.3,121.9,101.2,121.9z M105.5,112.9c-0.1,0.2-0.2,0.3-0.4,0.6v0c0,0.2-0.4,0.6-0.8,1.7v0.1
					c-0.3,0.4-0.2,0.8-0.5,0.9v0.2c-0.5,1.3-0.6,2.1-0.6,2.2c0,0,0,0,0,0c0.2,0,0.2-0.2,0.4-0.6c0-0.2,0.2-0.4,0.4-0.7l0-0.3
					c0.2-0.6,0.6-0.8,0.6-1.2c0.1,0,0.1-0.1,0.1-0.2v-0.1c0-0.1,0.2-0.2,0.2-0.4l0.1-0.1v-0.2c0.2-0.4,0.4-1,0.6-1.7V112.9z"/>
				<path class="st13" d="M115.6,122.1L115.6,122.1c-0.2,0.3-0.4,0.4-0.6,0.5v0.1c-0.2,0-0.2,0.1-0.3,0.2l0,0l0,0.1
					c-0.2,0.1-0.3,0.2-0.4,0.4c-0.2,0.1-0.3,0.2-0.4,0.3c-0.2,0.2-0.5,0.6-0.8,0.9c-0.1,0.1-0.2,0.2-0.2,0.3
					c-0.1,0.2-0.2,0.5-0.4,0.7c0,0.2-0.2,0.4-0.3,0.5l0,0.1l-0.1,0.1l0,0.1l0,0c0,0.2,0,0.2-0.2,0.3c0,0.2-0.2,0.3-0.3,0.5l-0.2,0.4
					l-0.3,0.4l-0.2,0.3l-0.1,0.2c-0.2,0.1-0.2,0.2-0.3,0.3c-0.2,0.3-0.5,0.6-0.8,0.8c-0.3,0.1-0.5,0.2-0.6,0.2c-0.1,0-0.2,0-0.4-0.1
					l0-0.1v-0.2l0-0.2c0.2-0.3,0.3-0.6,0.5-1c0-0.1,0.2-0.1,0.3-0.2c0-0.1,0-0.1,0-0.1c0-0.1,0.1-0.2,0.3-0.3v-0.1
					c0,0,0-0.1,0.1-0.2c0.2-0.3,0.5-0.7,0.8-1.1l0.2-0.1c0-0.1,0.1-0.2,0.2-0.4c0.4-0.4,0.7-0.9,1.1-1.3c0.1-0.2,0.2-0.4,0.2-0.5
					l0,0l0.2-0.4v-0.1c0.1-0.2,0.2-0.4,0.2-0.6c0.1-0.1,0.2-0.2,0.2-0.4c0,0,0-0.1,0-0.2c0-0.1,0.1-0.2,0.1-0.4l0-0.1v0
					c0.1-0.2,0.1-0.5,0.1-0.7v-0.1h-0.1l-0.1,0.2c-0.2,0.2-0.5,0.4-0.7,0.6l0,0.1l-0.1,0l-0.2,0.3c-0.2,0.2-0.4,0.4-0.7,0.6
					c-0.2,0.1-0.4,0.1-0.4,0.3c-0.4,0.4-0.8,0.6-1.1,0.6h-0.1c-0.6,0-0.7,0-0.7-0.8v-0.1c0-0.1,0-0.1,0-0.1c0,0,0-0.1-0.1-0.1v-0.2
					c0-0.2,0-0.4,0-0.6l-0.1,0h-0.1l-0.1,0l0,0.1c-0.2,0-0.4,0.2-0.5,0.2c-0.1,0.2-0.3,0.2-0.5,0.3l-0.2,0.2c-0.2,0-0.2,0.1-0.3,0.2
					c-0.1,0-0.2,0.1-0.3,0.1c-0.1,0-0.2-0.1-0.2-0.2c0,0,0,0,0-0.1l0.2-0.2v-0.2c0.2-0.2,0.3-0.3,0.4-0.4l0.1-0.2l0.2,0
					c0-0.2,0.2-0.4,0.4-0.4h0l0-0.2l0.1-0.1c0.2-0.1,0.3-0.2,0.5-0.4l0.2-0.1l0-0.2c0.8-0.8,1.1-1.4,1.6-1.4c0.3,0,0.6,0.2,0.6,0.6
					c0,0,0,0.1,0,0.1l0,0.1v0.1c0,0.1,0,0.1-0.1,0.2l-0.1,0.4c-0.3,0.9-0.4,1.5-0.4,1.5c0,0,0,0.1,0,0.2l0,0l0.1,0
					c0.2-0.2,0.4-0.4,0.7-0.6c0.2-0.2,0.4-0.4,0.5-0.6l0.2-0.2l0.2-0.2c0.3-0.4,0.5-0.6,0.7-0.7l0.1-0.1c0.3-0.3,0.6-0.6,0.9-0.8
					l0-0.2c0.4-0.3,0.5-0.5,0.9-0.5c0.4,0,0.6,0.2,0.6,0.3c0,0.1-0.1,0.2-0.1,0.6l-0.1,0.3l0,0.2c-0.3,1.2-0.6,2-0.8,2.6v0.1
					l-0.1,0.4l0.2,0c0.2,0,0.2,0,0.2-0.2v0c0.2-0.3,0.5-0.6,0.9-0.8c0.2-0.3,0.4-0.4,0.6-0.6l0.3-0.1c0.2,0,0.2-0.1,0.3-0.2
					c0.1,0,0.2-0.1,0.3-0.2c0.1-0.1,0.2-0.2,0.3-0.2c0.2,0,0.3,0,0.3,0.1c0,0,0,0,0,0.1c0,0.1,0,0.2,0,0.2c-0.2,0.2-0.4,0.5-0.6,0.6
					c0,0.2,0,0.2-0.2,0.2c-0.1,0.2-0.3,0.4-0.5,0.5L115.6,122.1z"/>
			</g>
		</g>
		<g class="st12">
			<path class="st13" d="M262.4,122c-0.1,0-0.1-0.1-0.2-0.1c0,0-0.1,0-0.1,0.1l-0.1,0.1c-0.2,0.2-0.3,0.1-0.4,0.3l-0.2,0.1l-0.1,0.1
				l-0.2,0.1c-0.1,0-0.2,0-0.2,0c0,0-0.1,0-0.1,0l0-0.1c0-0.2,0-0.3,0.2-0.4v-0.2c0.2-0.1,0.3-0.3,0.4-0.4l0-0.2h0.1
				c0.1,0,0.2,0,0.2-0.2l0.1-0.2l0.3-0.1c0.1-0.2,0.2-0.3,0.3-0.4c0.2-0.2,0.4-0.3,0.5-0.4l0.1,0c0-0.2,0.2-0.3,0.4-0.4l0.3-0.2
				c0.2-0.2,0.4-0.4,0.5-0.5l0.2,0v-0.1l0.6-0.5l0.2-0.2c0-0.1,0.1-0.1,0.2-0.2l0.2-0.2l0.1-0.1c0.1-0.2,0.2-0.2,0.4-0.3l0.1,0
				l0.1-0.1c0.3-0.2,0.6-0.4,0.8-0.6l0.2-0.2c0.1-0.1,0.2-0.1,0.3-0.1c0.1,0,0.2-0.1,0.2-0.1c0,0,0.2,0,0.2,0c0.2,0,0.4,0.2,0.4,0.2
				c0,0,0,0,0,0.1c0,0,0.1,0,0.1,0.1c0,0.1-0.2,0.5-0.8,0.8l-0.1,0.2c0,0.1-0.3,0.3-0.7,0.7l-0.2,0.1l-0.1,0.2l-0.2,0.2l-0.2,0.2
				l-0.2,0.1l0,0.1l-0.2,0.2l-0.2,0.2l-0.2,0.1c-0.2,0.2-0.3,0.4-0.6,0.8l-0.3,0.3l-0.3,0.3c0,0.1-0.1,0.2-0.2,0.3l-0.1,0.3
				c0,0,0.1,0,0.1,0c0,0,0.1,0,0.2,0l0.2-0.2l0.2,0l0.1-0.1l0.2-0.2l0.1,0h0.2c0-0.2,0.1-0.2,0.2-0.2l0-0.1l0.2-0.2
				c0.2-0.2,0.5-0.4,0.8-0.6l0.3-0.3l0.4-0.3c0.2-0.2,0.4-0.3,0.8-0.3c0.2,0,0.3,0.2,0.3,0.5v0l0,0.2v0.1v0.4l0,0.2l0,0.1v0.2
				c0.1,0.4,0.3,0.6,0.6,0.6c0.2,0,0.6-0.4,0.6-0.5c0,0,0.2-0.1,0.5-0.2l0.2-0.2c0.2,0,0.2,0,0.3-0.2l0.1-0.1c0.1,0,0.1,0,0.1,0
				c0.1,0,0.2,0,0.2,0.2v0c0,0.1,0,0.2-0.1,0.2c-0.1,0.2-0.3,0.4-0.5,0.6l0,0.2l-0.2,0c-0.1,0.2-0.2,0.3-0.4,0.4
				c-0.1,0.2-0.3,0.3-0.4,0.3c-0.3,0.4-0.6,0.5-1,0.5c-0.8,0-1.5-0.5-1.5-1.5c0,0,0-0.2,0-0.4c-0.1,0-0.2,0.1-0.3,0.2l-0.2,0.2
				l-0.3,0.2l-0.2,0.2c-0.1,0.1-0.2,0.2-0.2,0.2c0,0-0.1,0-0.1,0c0,0.3-0.7,1-1.7,1.4c-0.3,0.2-0.5,0.3-0.7,0.3
				c-0.3,0-0.7-0.3-0.7-0.7c0-0.2,0.1-0.5,0.2-0.8l0.2-0.4C262.5,121.7,262.5,122,262.4,122z"/>
			<path class="st13" d="M269.9,120.4c1.4-1.6,2.1-2.5,2.5-2.6l0.2,0l0.2-0.1l0.2-0.1l0.1,0h0.1c0.3,0.2,0.5,0.4,0.5,0.6
				c0,0.1,0,0.3-0.1,0.4l0,0.3c0,0.2-0.1,0.4-0.2,0.6l-0.1,0.2v0.2c-0.2,0.4-0.3,0.8-0.5,1.3l-0.1,0.1c0,0,0,0.1,0,0.2
				c0,0.2-0.2,0.2-0.2,0.4v0.1l0.4-0.3c0.2-0.2,0.3-0.4,0.6-0.6l0.1,0l0-0.1v-0.1c0-0.1,0.1-0.2,0.2-0.3l0.3-0.2l0.1-0.2
				c0.6-0.6,1.1-0.9,1.6-0.9c0.3,0,0.5,0.1,0.6,0.3l0.2,0.2c0.1,0.3,0.3,0.6,0.4,0.9l0,0.2c0.2,0.2,0.2,0.6,0.6,0.6
				c0.1,0,0.2,0,0.2,0l0.1,0l0.1-0.1l0.2-0.2l0.2-0.2c0.6-0.2,0.9-0.6,1.3-0.6c0.1,0,0.2,0,0.2,0.2c0,0,0,0.1-0.1,0.3l-0.1,0.2
				c-0.3,0.4-0.7,0.8-1.1,1.2l-0.1,0.1l-0.2,0.1c0,0.2-0.2,0.2-0.4,0.3l-0.1,0.1l-0.4,0.2c-0.2,0.1-0.2,0.1-0.3,0.1
				c-0.4,0-0.8-0.4-1.1-1.1v-0.2c-0.2-0.2-0.4-0.4-0.6-0.6c-0.1,0-0.2,0-0.2,0c-0.2,0-0.4,0.2-0.7,0.5h-0.2l-0.2,0.2
				c-0.1,0.2-0.3,0.3-0.4,0.3l-0.2,0.4c-0.6,0.6-1,1.1-1.3,1.3c-0.3,0.4-0.5,0.5-1,0.5c-0.2,0-0.3,0-0.3-0.3v-0.2l0-0.1l0-0.2
				c0.3-1.1,0.5-1.7,0.5-1.8c0,0,0-0.1,0.1-0.2l0.1-0.2c0-0.1,0-0.1,0-0.1c0-0.2,0.2-0.4,0.2-0.8c0,0-0.1-0.1-0.2-0.1
				c-0.5,0-0.5,0.4-0.7,0.5l-0.2,0.3l-0.2,0.2l-0.1,0l0,0l0,0.1l-0.1,0.1c-0.1,0-0.2,0.1-0.2,0.1l-0.2,0.2c-0.8,0.6-1.3,1-1.5,1
				c-0.1,0-0.2-0.1-0.2-0.2c0-0.1,0.1-0.2,0.2-0.3v-0.2c0.6-0.7,1-1.1,1.1-1.1v0c0,0,0,0,0,0c0,0,0.1,0,0.1-0.2l0.1-0.1l0.2-0.2
				L269.9,120.4z"/>
			<path class="st13" d="M286.2,121.2l0.2-0.1c0.1-0.2,0.2-0.2,0.3-0.2l0.4-0.2l0.2-0.2c0.1,0,0.2,0,0.2-0.1
				c0.1-0.1,0.2-0.2,0.3-0.2c0,0,0.1,0,0.1,0c0,0,0.1,0.1,0.1,0.2c0,0,0,0.2-0.1,0.3l-0.2,0.3l-0.3,0.3c0,0.2-0.1,0.2-0.3,0.2
				c-0.1,0.2-0.2,0.4-0.4,0.4l-0.1,0.1l-0.2,0.1c-0.1,0.1-0.2,0.2-0.3,0.2c-0.1,0.1-0.2,0.1-0.3,0.2c-0.2,0-0.3,0-0.4,0.1l-0.1,0
				h-0.2c-0.1,0-0.2,0-0.2,0c-0.2,0-0.5-0.1-0.9-0.3l0-0.1c-0.1-0.1-0.2-0.2-0.3-0.3l0-0.1l0,0c-0.1-0.1-0.2-0.2-0.2-0.4
				c0,0,0-0.1,0-0.1c0-0.1,0-0.1-0.1-0.2c0-0.2,0-0.3-0.1-0.4l0-0.2l-0.1-0.2c-0.1,0.1-0.2,0.2-0.3,0.3c-0.1,0.1-0.2,0.2-0.2,0.3
				c-0.2,0.1-0.2,0.2-0.2,0.3l0,0.1c-0.1,0.1-0.2,0.3-0.4,0.4l-0.2,0.1l-0.1,0.2c-0.2,0.2-0.4,0.5-0.7,0.8l-0.3,0.2l-0.2,0.2
				c-0.2,0.1-0.3,0.2-0.4,0.4l-0.2,0.1h-0.1c0,0-0.1,0-0.2,0h-0.2c-0.1,0-0.2,0-0.2,0c-0.1,0-0.3-0.1-0.3-0.3v-0.1l0,0v-0.1l0-0.1
				c0-0.4,0.1-0.9,0.3-1.4l0.1-0.3c-0.2,0.2-0.4,0.3-0.6,0.4l-0.2,0.1c-0.1,0.1-0.2,0.2-0.3,0.2c-0.4,0.3-0.6,0.5-0.8,0.5
				c-0.1,0-0.1,0-0.2-0.1l0-0.2c0-0.1,0.1-0.2,0.2-0.2V122c0-0.1,0.2-0.2,0.3-0.2c0.1-0.2,0.2-0.3,0.4-0.4c0.1-0.2,0.2-0.3,0.4-0.4
				l0.1-0.2l0.2,0c0-0.1,0.1-0.2,0.2-0.2c0,0,0,0,0.1,0c0,0,0.1,0,0.1-0.2c0.2-0.2,0.4-0.4,0.6-0.6c0.2-0.1,0.3-0.1,0.3-0.3v0
				c0,0,0.3-0.2,0.7-0.6l0.1-0.1l0.3-0.2l0.3-0.3c0.2-0.2,0.6-0.6,1.1-1.1c0.2-0.1,0.4-0.3,0.8-0.6c0.2-0.1,0.3-0.1,0.4-0.1
				c0.1-0.3,0.2-0.6,0.2-0.8l0.1-0.1c0.2-0.8,0.5-1.5,0.8-2.1l0.1-0.1v0.1c0-0.2,0.1-0.3,0.2-0.4c0.1-0.1,0.2-0.2,0.2-0.3l0.2-0.2
				l0-0.2c0.1-0.2,0.2-0.4,0.5-0.7l0.2-0.2l0.2-0.1l0.1,0l0.1-0.1c0.1,0,0.2,0,0.3,0.1l0.1,0.2l0,0.1l0.1,0.1v0.1
				c0,0.2-0.1,0.4-0.2,0.6v0.2c0,0.3-0.1,0.5-0.2,0.7v0.2c0,0.2-0.1,0.5-0.2,0.6l-0.1,0.1v0.1l0,0.1v0.1c-0.1,0.1-0.2,0.2-0.2,0.3
				c0,0,0,0.1,0,0.2c0,0.3-0.2,0.6-0.4,0.9c-0.1,0-0.1,0.1-0.1,0.2c0,0,0,0,0,0.1c0,0.2-0.2,0.4-0.2,0.5c-0.1,0-0.2,0-0.2,0.1
				c0,0,0,0.1,0,0.2c0,0.2-0.2,0.5-0.4,0.9l-0.1,0.2c-0.1,0.2-0.1,0.4-0.1,0.6v0.1l0,0.2l0,0.2c0,0.4,0,0.8,0.2,1.3c0,0,0,0.1,0,0.1
				c0,0,0,0.1,0.1,0.1l0.1,0.3c0.1,0.1,0.2,0.2,0.2,0.3c0.2,0.1,0.3,0.2,0.4,0.2c0.1,0,0.2,0,0.3,0c0,0,0.1,0,0.2,0L286.2,121.2z
				 M281.4,121.2c0.4-0.4,0.6-0.7,0.8-0.9l0.1,0l0.1-0.2c0.4-0.5,0.6-0.9,0.8-1.3c0-0.3,0-0.6,0.1-0.9h-0.2l-0.1,0.2l-0.1,0.2
				c-0.2,0.2-0.3,0.3-0.4,0.4l-0.1,0.1l-0.2,0.1v0.1c-0.1,0.2-0.4,0.5-0.8,1c-0.1,0.1-0.2,0.2-0.2,0.4c-0.1,0.1-0.2,0.2-0.3,0.4
				c-0.1,0.1-0.2,0.2-0.2,0.3c0,0.2-0.1,0.3-0.2,0.4c0,0.1-0.1,0.2-0.2,0.4c0,0.2-0.2,0.3-0.2,0.5c0.1,0,0.1,0,0.2,0
				c0.1,0,0.2-0.1,0.3-0.2l0.2-0.1c0.2-0.2,0.3-0.4,0.4-0.4L281.4,121.2z"/>
		</g>
		<path class="st10" d="M308.7,115.2c-0.2-0.2-0.4-0.3-0.7-0.4l-1-0.2l-0.9,6.2l1,0.2c0.2,0,0.5,0,0.7-0.2c0.2-0.2,0.4-0.4,0.5-0.7
			l0.6-4.2C309,115.7,308.9,115.5,308.7,115.2z M327.2,107.2l-21.5-3.2c-1.5-0.2-2.8,0.8-3,2.2l-3.2,21.5c-0.2,1.5,0.8,2.8,2.2,3
			l21.5,3.2c1.5,0.2,2.8-0.8,3-2.2l3.2-21.5C329.7,108.8,328.7,107.4,327.2,107.2z M310,120.5c-0.2,1.1-1.1,2.7-3.3,2.4l-2.8-0.4
			l1.5-9.9l2.8,0.4c2.1,0.3,2.6,2.1,2.4,3.2L310,120.5z M316.8,116.1l-3.2-0.5l-0.3,2.3l1.9,0.3L315,120l-1.9-0.3l-0.3,2.3l3.2,0.5
			l-0.3,1.8l-3.7-0.5c-0.7-0.1-1.2-0.7-1.1-1.4l1.1-7.5c0.1-0.7,0.7-1.2,1.4-1.1l3.8,0.5L316.8,116.1z M322,123.9
			c-1.1,1.7-2.4,1.2-2.8-0.4l-1-9l1.9,0.3l0.8,7.1l2.8-6.5l1.9,0.3L322,123.9z"/>
	</g>
</g>
<path class="st9" d="M417.8,111.9c-0.6-0.4-1.3-0.6-2-0.6c0.5-1,0.6-2.2,0.3-3.3c-0.3-1.2-1.1-2.2-2.2-2.8c-0.7-0.4-1.5-0.6-2.3-0.6
	c-1.6,0-3.1,0.8-4,2.2c-0.4-0.6-0.9-1.1-1.6-1.5c-0.7-0.4-1.5-0.6-2.3-0.6c-1.6,0-3,0.8-3.9,2c-0.4-0.6-0.9-1.1-1.5-1.4
	c-0.7-0.4-1.5-0.6-2.3-0.6c-1.7,0-3.3,0.9-4.1,2.4c-0.8,1.4-0.8,3.1-0.1,4.5c-1.6,0.1-3,1-3.8,2.3c-1.3,2.2-0.5,5.1,1.7,6.4
	c0.6,0.4,1.3,0.6,2,0.6c-1,2.2-0.2,4.8,1.9,6.1c0.6,0.4,1.4,0.6,2.1,0.6c-1.1,2.2-0.3,4.9,1.9,6.2c0.7,0.4,1.5,0.6,2.3,0.6
	c1.6,0,3.1-0.8,3.9-2.1c0.4,0.6,0.9,1.1,1.5,1.4c0.7,0.4,1.5,0.6,2.3,0.6c1.7,0,3.3-0.9,4.1-2.4c0.8-1.4,0.8-3,0.2-4.4
	c1.5-0.1,2.9-1,3.7-2.3c0.6-1.1,0.8-2.4,0.5-3.6c-0.1-0.3-0.2-0.5-0.3-0.8c1.5-0.1,2.9-1,3.7-2.3C420.8,116.1,420,113.2,417.8,111.9
	z M412,110.6c-0.1,0-0.2,0.1-0.4,0c-0.7,0-1.3-0.5-1.5-1.2c0-0.1,0-0.2,0-0.3c0-0.7,0.5-1.3,1.2-1.5c0.1,0,0.2,0,0.3,0
	c0.4,0,0.7,0.1,0.9,0.3c0.1,0.1,0.2,0.2,0.2,0.2c0.2,0.3,0.3,0.6,0.3,0.9C413.2,109.9,412.7,110.4,412,110.6z"/>
<g>
	<path class="st14" d="M404.3,117.5c0.4,0,0.7-0.1,1-0.3c0.3-0.2,0.4-0.5,0.5-0.9h-0.4c-0.1,0.6-0.5,0.9-1,0.9
		c-0.3,0-0.5-0.1-0.6-0.2c-0.2-0.2-0.3-0.5-0.3-1.1h2.4c0-0.5,0-0.6-0.1-0.9c-0.2-0.6-0.7-1-1.3-1c-0.9,0-1.7,0.8-1.7,1.8
		C402.6,116.7,403.3,117.5,404.3,117.5 M403.5,114.7c0.2-0.3,0.4-0.5,0.7-0.5c0.2,0,0.4,0.1,0.5,0.2c0.2,0.2,0.3,0.4,0.3,0.9h-1.7
		C403.4,115,403.5,114.9,403.5,114.7"/>
	<path class="st14" d="M406.5,114.7v1.9c0,0.3-0.2,0.4-0.5,0.4h-0.3v0.4h2.1V117h-0.2c-0.3,0-0.5-0.2-0.5-0.4v-1
		c0-0.7,0.5-1.3,1-1.3c0.4,0,0.7,0.4,0.7,0.8v1.5c0,0.3-0.1,0.5-0.5,0.5h-0.2v0.4h2V117h-0.2c-0.3,0-0.5-0.1-0.5-0.5v-1.4
		c0-0.7-0.5-1.3-1.2-1.3c-0.3,0-0.5,0.1-0.7,0.3c-0.1,0.1-0.2,0.2-0.4,0.4h0v-0.6h-1.4v0.4h0.3C406.4,114.3,406.5,114.4,406.5,114.7
		"/>
	<path class="st14" d="M403.5,120.9c-0.1,0.6-0.5,0.9-1,0.9c-0.3,0-0.5-0.1-0.6-0.2c-0.2-0.2-0.3-0.5-0.3-1.1h2.4
		c0-0.4,0-0.6-0.1-0.9c-0.2-0.6-0.7-1-1.3-1c-0.8,0-1.5,0.7-1.7,1.5c-0.1-0.9-0.7-1.5-1.4-1.5c-0.4,0-0.7,0.2-1.1,0.6h0v-1.7h0.9
		V117h-0.3c-0.3,0-0.5-0.2-0.5-0.5V116c0-0.3,0.1-0.8,0.3-1.2c0.1-0.4,0.3-0.6,0.5-0.6c0.1,0,0.2,0.1,0.2,0.1c0,0,0,0.1-0.1,0.1
		c-0.1,0.1-0.2,0.2-0.2,0.3c0,0.2,0.2,0.4,0.4,0.4c0,0,0.1,0,0.1,0c-0.1,0.2-0.1,0.4-0.1,0.6c0,1,0.7,1.8,1.7,1.8
		c0.4,0,0.7-0.1,1-0.3c0.3-0.2,0.4-0.5,0.5-0.9h-0.4c-0.1,0.6-0.5,0.9-1,0.9c-0.3,0-0.5-0.1-0.6-0.2c-0.2-0.2-0.3-0.5-0.3-1.1h2.4
		c0-0.5,0-0.6-0.1-0.9c-0.2-0.6-0.7-1-1.3-1c-0.5,0-1,0.2-1.3,0.6c0-0.4-0.3-0.6-0.7-0.6c-0.3,0-0.5,0.1-0.6,0.3
		c-0.2,0.2-0.2,0.3-0.3,0.8h0v-1h-1.3c-0.1-0.1-0.2-0.1-0.4-0.1c-0.3,0-0.5,0.1-0.8,0.4c-0.3-0.3-0.6-0.4-1-0.4
		c-0.9,0-1.5,0.5-1.5,1.2c0,0.3,0.2,0.6,0.5,0.9c-0.4,0.1-0.6,0.4-0.6,0.7c0,0.4,0.2,0.6,0.7,0.7c-0.6,0.3-0.8,0.6-0.8,0.9
		c0,0.6,0.6,0.9,1.6,0.9c0.7,0,1.2-0.2,1.6-0.5c0.2-0.2,0.4-0.6,0.4-0.9c0-0.6-0.4-1-1.1-1h-1.2c-0.5,0-0.7-0.1-0.7-0.3
		c0-0.2,0.2-0.3,0.6-0.3c0,0,0.1,0,0.2,0c0.1,0,0.2,0,0.3,0c0.9,0,1.5-0.5,1.5-1.2c0-0.2,0-0.3-0.2-0.6c0.3-0.2,0.4-0.3,0.6-0.3
		c0.1,0,0.1,0,0.1,0.1c0,0,0,0,0,0.1c-0.1,0.1-0.1,0.2-0.1,0.3c0,0.2,0.2,0.4,0.4,0.4c0.2,0,0.4-0.2,0.4-0.5c0,0,0-0.1,0-0.1
		c0.2,0,0.4,0.1,0.4,0.4v1.9c0,0.2-0.1,0.3-0.3,0.3h-0.4v0h0v0.4h0v0h0.2c0.3,0,0.4,0.1,0.4,0.3v4.4h0.3l0.2-0.7
		c0.2,0.3,0.3,0.4,0.5,0.6c0.2,0.2,0.5,0.3,0.7,0.3c0.7,0,1.3-0.6,1.4-1.5c0.1,0.9,0.8,1.5,1.7,1.5c0.4,0,0.7-0.1,1-0.3
		c0.3-0.2,0.4-0.5,0.5-0.9H403.5z M401.6,119.4c0.2-0.3,0.4-0.5,0.7-0.5c0.2,0,0.4,0.1,0.5,0.2c0.2,0.2,0.3,0.4,0.3,0.9h-1.7
		C401.5,119.7,401.5,119.6,401.6,119.4 M400.4,114.7c0.2-0.3,0.4-0.5,0.7-0.5c0.2,0,0.4,0.1,0.5,0.2c0.2,0.2,0.3,0.4,0.3,0.9h-1.7
		C400.2,115,400.3,114.9,400.4,114.7 M395.3,117.4c0.5,0,0.8,0.2,0.8,0.6c0,0.5-0.5,0.8-1.3,0.8c-0.7,0-1.1-0.3-1.1-0.7
		c0-0.3,0.1-0.4,0.6-0.7H395.3z M394.7,115.8c-0.4,0-0.8-0.4-0.8-0.8c0-0.5,0.3-0.8,0.8-0.8c0.5,0,0.8,0.3,0.8,0.8
		C395.4,115.5,395.1,115.8,394.7,115.8 M399.2,121.7c-0.6,0-1.1-0.6-1.1-1.3c0-0.8,0.4-1.4,1-1.4c0.5,0,0.8,0.5,0.8,1.4
		C400,121.2,399.7,121.7,399.2,121.7"/>
	<path class="st14" d="M413,119L413,119l0.1-0.4h-1.5v0.4h0.3c0.2,0,0.3,0.1,0.3,0.2c0,0,0,0.1,0,0.2l-0.8,2.1l-0.8-1.9
		c-0.1-0.1-0.1-0.3-0.1-0.4v0c0-0.1,0.1-0.2,0.4-0.2h0.3v-0.4h-1.9v0c-0.1-0.1-0.2-0.1-0.4-0.1c-0.3,0-0.5,0.1-0.6,0.3
		c-0.2,0.2-0.2,0.3-0.3,0.8h0v-1h-1.3v0.3c-0.1-0.2-0.3-0.4-0.6-0.4c-0.3,0-0.5,0.1-0.6,0.3c-0.2,0.2-0.2,0.3-0.3,0.8h0v-1h-1.3v0.4
		h0.3c0.3,0,0.4,0.1,0.4,0.4v1.9c0,0.2-0.2,0.3-0.4,0.3h-0.3v0.4h2.2v-0.4h-0.3c-0.3,0-0.5-0.2-0.5-0.5v-0.5c0-0.3,0.1-0.8,0.3-1.2
		c0.1-0.4,0.3-0.6,0.6-0.6c0.1,0,0.2,0.1,0.2,0.1c0,0,0,0.1-0.1,0.1c-0.1,0.1-0.2,0.2-0.2,0.3c0,0.2,0.2,0.4,0.4,0.4
		c0.3,0,0.5-0.2,0.5-0.5c0-0.1,0-0.2,0-0.2h0.2c0.3,0,0.4,0.1,0.4,0.4v1.9c0,0.2-0.2,0.3-0.4,0.3h-0.3v0.4h2.2v-0.4h-0.3
		c-0.3,0-0.5-0.2-0.5-0.5v-0.5c0-0.3,0.1-0.8,0.3-1.2c0.1-0.4,0.3-0.6,0.6-0.6c0.1,0,0.2,0.1,0.2,0.1c0,0,0,0.1-0.1,0.1
		c-0.1,0.1-0.2,0.2-0.2,0.3c0,0.2,0.2,0.4,0.4,0.4c0.3,0,0.5-0.2,0.5-0.5c0-0.1,0-0.1,0-0.2c0.1,0,0.2,0.1,0.2,0.2l1.3,2.9
		c-0.2,0.4-0.2,0.6-0.4,0.8c-0.2,0.4-0.5,0.5-0.7,0.5c-0.1,0-0.2,0-0.2-0.1c0,0,0,0,0-0.1c0,0,0,0,0.1,0c0.2-0.1,0.3-0.2,0.3-0.4
		c0-0.2-0.2-0.4-0.4-0.4c-0.3,0-0.5,0.2-0.5,0.5c0,0.4,0.4,0.7,0.8,0.7c0.3,0,0.5-0.1,0.7-0.3c0.2-0.2,0.4-0.6,0.6-0.9l1.3-3.1
		C412.6,119.2,412.8,119,413,119"/>
	<path class="st14" d="M412.8,121.4c-0.2,0-0.4,0.2-0.4,0.4c0,0.2,0.2,0.4,0.4,0.4c0.2,0,0.4-0.2,0.4-0.4
		C413.2,121.5,413,121.4,412.8,121.4"/>
</g>
<g class="st12">
	<path class="st13" d="M345.3,121.7c-0.1,0-0.1-0.1-0.2-0.1c0,0-0.1,0-0.1,0.1l-0.1,0.1c-0.2,0.2-0.3,0.1-0.4,0.3l-0.2,0.1l-0.1,0.1
		l-0.2,0.1c-0.1,0-0.2,0-0.2,0c0,0-0.1,0-0.1,0l0-0.1c0-0.2,0-0.3,0.2-0.4v-0.2c0.2-0.1,0.3-0.3,0.4-0.4l0-0.2h0.1
		c0.1,0,0.2,0,0.2-0.2l0.1-0.2l0.3-0.1c0.1-0.2,0.2-0.3,0.3-0.4c0.2-0.2,0.4-0.3,0.5-0.4l0.1,0c0-0.2,0.2-0.3,0.4-0.4l0.3-0.2
		c0.2-0.2,0.4-0.4,0.5-0.5l0.2,0v-0.1l0.6-0.5l0.2-0.2c0-0.1,0.1-0.1,0.2-0.2l0.2-0.2l0.1-0.1c0.1-0.2,0.2-0.2,0.4-0.3l0.1,0
		l0.1-0.1c0.3-0.2,0.6-0.4,0.8-0.6l0.2-0.2c0.1-0.1,0.2-0.1,0.3-0.1c0.1,0,0.2-0.1,0.2-0.1c0,0,0.2,0,0.2,0c0.2,0,0.4,0.2,0.4,0.2
		c0,0,0,0,0,0.1c0,0,0.1,0,0.1,0.1c0,0.1-0.2,0.5-0.8,0.8l-0.1,0.2c0,0.1-0.3,0.3-0.7,0.7l-0.2,0.1l-0.1,0.2l-0.2,0.2l-0.2,0.2
		l-0.2,0.1l0,0.1l-0.2,0.2l-0.2,0.2l-0.2,0.1c-0.2,0.2-0.3,0.4-0.6,0.8l-0.3,0.3l-0.3,0.3c0,0.1-0.1,0.2-0.2,0.3l-0.1,0.3
		c0,0,0.1,0,0.1,0c0,0,0.1,0,0.2,0l0.2-0.2l0.2,0l0.1-0.1l0.2-0.2l0.1,0h0.2c0-0.2,0.1-0.2,0.2-0.2l0-0.1l0.2-0.2
		c0.2-0.2,0.5-0.4,0.8-0.6l0.3-0.3l0.4-0.3c0.2-0.2,0.4-0.3,0.8-0.3c0.2,0,0.3,0.2,0.3,0.5v0l0,0.2v0.1v0.4l0,0.2l0,0.1v0.2
		c0.1,0.4,0.3,0.6,0.6,0.6c0.2,0,0.6-0.4,0.6-0.5c0,0,0.2-0.1,0.5-0.2l0.2-0.2c0.2,0,0.2,0,0.3-0.2l0.1-0.1c0.1,0,0.1,0,0.1,0
		c0.1,0,0.2,0,0.2,0.2v0c0,0.1,0,0.2-0.1,0.2c-0.1,0.2-0.3,0.4-0.5,0.6l0,0.2l-0.2,0c-0.1,0.2-0.2,0.3-0.4,0.4
		c-0.1,0.2-0.3,0.3-0.4,0.3c-0.3,0.4-0.6,0.5-1,0.5c-0.8,0-1.5-0.5-1.5-1.5c0,0,0-0.2,0-0.4c-0.1,0-0.2,0.1-0.3,0.2l-0.2,0.2
		l-0.3,0.2l-0.2,0.2c-0.1,0.1-0.2,0.2-0.2,0.2c0,0-0.1,0-0.1,0c0,0.3-0.7,1-1.7,1.4c-0.3,0.2-0.5,0.3-0.7,0.3
		c-0.3,0-0.7-0.3-0.7-0.7c0-0.2,0.1-0.5,0.2-0.8l0.2-0.4C345.4,121.4,345.4,121.7,345.3,121.7z"/>
	<path class="st13" d="M352.9,120.1c1.4-1.6,2.1-2.5,2.5-2.6l0.2,0l0.2-0.1l0.2-0.1l0.1,0h0.1c0.3,0.2,0.5,0.4,0.5,0.6
		c0,0.1,0,0.3-0.1,0.4l0,0.3c0,0.2-0.1,0.4-0.2,0.6l-0.1,0.2v0.2c-0.2,0.4-0.3,0.8-0.5,1.3l-0.1,0.1c0,0,0,0.1,0,0.2
		c0,0.2-0.2,0.2-0.2,0.4v0.1l0.4-0.3c0.2-0.2,0.3-0.4,0.6-0.6l0.1,0l0-0.1v-0.1c0-0.1,0.1-0.2,0.2-0.3l0.3-0.2l0.1-0.2
		c0.6-0.6,1.1-0.9,1.6-0.9c0.3,0,0.5,0.1,0.6,0.3l0.2,0.2c0.1,0.3,0.3,0.6,0.4,0.9l0,0.2c0.2,0.2,0.2,0.6,0.6,0.6c0.1,0,0.2,0,0.2,0
		l0.1,0l0.1-0.1l0.2-0.2l0.2-0.2c0.6-0.2,0.9-0.6,1.3-0.6c0.1,0,0.2,0,0.2,0.2c0,0,0,0.1-0.1,0.3l-0.1,0.2c-0.3,0.4-0.7,0.8-1.1,1.2
		l-0.1,0.1l-0.2,0.1c0,0.2-0.2,0.2-0.4,0.3l-0.1,0.1l-0.4,0.2c-0.2,0.1-0.2,0.1-0.3,0.1c-0.4,0-0.8-0.4-1.1-1.1v-0.2
		c-0.2-0.2-0.4-0.4-0.6-0.6c-0.1,0-0.2,0-0.2,0c-0.2,0-0.4,0.2-0.7,0.5h-0.2l-0.2,0.2c-0.1,0.2-0.3,0.3-0.4,0.3l-0.2,0.4
		c-0.6,0.6-1,1.1-1.3,1.3c-0.3,0.4-0.5,0.5-1,0.5c-0.2,0-0.3,0-0.3-0.3v-0.2l0-0.1l0-0.2c0.3-1.1,0.5-1.7,0.5-1.8c0,0,0-0.1,0.1-0.2
		l0.1-0.2c0-0.1,0-0.1,0-0.1c0-0.2,0.2-0.4,0.2-0.8c0,0-0.1-0.1-0.2-0.1c-0.5,0-0.5,0.4-0.7,0.5l-0.2,0.3l-0.2,0.2l-0.1,0l0,0l0,0.1
		l-0.1,0.1c-0.1,0-0.2,0.1-0.2,0.1l-0.2,0.2c-0.8,0.6-1.3,1-1.5,1c-0.1,0-0.2-0.1-0.2-0.2c0-0.1,0.1-0.2,0.2-0.3v-0.2
		c0.6-0.7,1-1.1,1.1-1.1v0c0,0,0,0,0,0c0,0,0.1,0,0.1-0.2l0.1-0.1l0.2-0.2L352.9,120.1z"/>
	<path class="st13" d="M369.2,120.9l0.2-0.1c0.1-0.2,0.2-0.2,0.3-0.2l0.4-0.2l0.2-0.2c0.1,0,0.2,0,0.2-0.1c0.1-0.1,0.2-0.2,0.3-0.2
		c0,0,0.1,0,0.1,0c0,0,0.1,0.1,0.1,0.2c0,0,0,0.2-0.1,0.3l-0.2,0.3l-0.3,0.3c0,0.2-0.1,0.2-0.3,0.2c-0.1,0.2-0.2,0.4-0.4,0.4
		l-0.1,0.1l-0.2,0.1c-0.1,0.1-0.2,0.2-0.3,0.2c-0.1,0.1-0.2,0.1-0.3,0.2c-0.2,0-0.3,0-0.4,0.1l-0.1,0h-0.2c-0.1,0-0.2,0-0.2,0
		c-0.2,0-0.5-0.1-0.9-0.3l0-0.1c-0.1-0.1-0.2-0.2-0.3-0.3l0-0.1l0,0c-0.1-0.1-0.2-0.2-0.2-0.4c0,0,0-0.1,0-0.1c0-0.1,0-0.1-0.1-0.2
		c0-0.2,0-0.3-0.1-0.4l0-0.2l-0.1-0.2c-0.1,0.1-0.2,0.2-0.3,0.3c-0.1,0.1-0.2,0.2-0.2,0.3c-0.2,0.1-0.2,0.2-0.2,0.3l0,0.1
		c-0.1,0.1-0.2,0.3-0.4,0.4l-0.2,0.1l-0.1,0.2c-0.2,0.2-0.4,0.5-0.7,0.8l-0.3,0.2l-0.2,0.2c-0.2,0.1-0.3,0.2-0.4,0.4l-0.2,0.1h-0.1
		c0,0-0.1,0-0.2,0h-0.2c-0.1,0-0.2,0-0.2,0c-0.1,0-0.3-0.1-0.3-0.3v-0.1l0,0v-0.1l0-0.1c0-0.4,0.1-0.9,0.3-1.4l0.1-0.3
		c-0.2,0.2-0.4,0.3-0.6,0.4l-0.2,0.1c-0.1,0.1-0.2,0.2-0.3,0.2c-0.4,0.3-0.6,0.5-0.8,0.5c-0.1,0-0.1,0-0.2-0.1l0-0.2
		c0-0.1,0.1-0.2,0.2-0.2v-0.2c0-0.1,0.2-0.2,0.3-0.2c0.1-0.2,0.2-0.3,0.4-0.4c0.1-0.2,0.2-0.3,0.4-0.4l0.1-0.2l0.2,0
		c0-0.1,0.1-0.2,0.2-0.2c0,0,0,0,0.1,0c0,0,0.1,0,0.1-0.2c0.2-0.2,0.4-0.4,0.6-0.6c0.2-0.1,0.3-0.1,0.3-0.3v0c0,0,0.3-0.2,0.7-0.6
		l0.1-0.1l0.3-0.2l0.3-0.3c0.2-0.2,0.6-0.6,1.1-1.1c0.2-0.1,0.4-0.3,0.8-0.6c0.2-0.1,0.3-0.1,0.4-0.1c0.1-0.3,0.2-0.6,0.2-0.8
		l0.1-0.1c0.2-0.8,0.5-1.5,0.8-2.1l0.1-0.1v0.1c0-0.2,0.1-0.3,0.2-0.4c0.1-0.1,0.2-0.2,0.2-0.3l0.2-0.2l0-0.2
		c0.1-0.2,0.2-0.4,0.5-0.7l0.2-0.2l0.2-0.1l0.1,0l0.1-0.1c0.1,0,0.2,0,0.3,0.1l0.1,0.2l0,0.1l0.1,0.1v0.1c0,0.2-0.1,0.4-0.2,0.6v0.2
		c0,0.3-0.1,0.5-0.2,0.7v0.2c0,0.2-0.1,0.5-0.2,0.6l-0.1,0.1v0.1l0,0.1v0.1c-0.1,0.1-0.2,0.2-0.2,0.3c0,0,0,0.1,0,0.2
		c0,0.3-0.2,0.6-0.4,0.9c-0.1,0-0.1,0.1-0.1,0.2c0,0,0,0,0,0.1c0,0.2-0.2,0.4-0.2,0.5c-0.1,0-0.2,0-0.2,0.1c0,0,0,0.1,0,0.2
		c0,0.2-0.2,0.5-0.4,0.9l-0.1,0.2c-0.1,0.2-0.1,0.4-0.1,0.6v0.1l0,0.2l0,0.2c0,0.4,0,0.8,0.2,1.3c0,0,0,0.1,0,0.1c0,0,0,0.1,0.1,0.1
		l0.1,0.3c0.1,0.1,0.2,0.2,0.2,0.3c0.2,0.1,0.3,0.2,0.4,0.2c0.1,0,0.2,0,0.3,0c0,0,0.1,0,0.2,0L369.2,120.9z M364.3,120.9
		c0.4-0.4,0.6-0.7,0.8-0.9l0.1,0l0.1-0.2c0.4-0.5,0.6-0.9,0.8-1.3c0-0.3,0-0.6,0.1-0.9h-0.2l-0.1,0.2l-0.1,0.2
		c-0.2,0.2-0.3,0.3-0.4,0.4l-0.1,0.1l-0.2,0.1v0.1c-0.1,0.2-0.4,0.5-0.8,1c-0.1,0.1-0.2,0.2-0.2,0.4c-0.1,0.1-0.2,0.2-0.3,0.4
		c-0.1,0.1-0.2,0.2-0.2,0.3c0,0.2-0.1,0.3-0.2,0.4c0,0.1-0.1,0.2-0.2,0.4c0,0.2-0.2,0.3-0.2,0.5c0.1,0,0.1,0,0.2,0
		c0.1,0,0.2-0.1,0.3-0.2l0.2-0.1c0.2-0.2,0.3-0.4,0.4-0.4L364.3,120.9z"/>
</g>
</svg>
